<svg xmlns="http://www.w3.org/2000/svg" viewBox="0 0 800 842.11"><defs><style>.cls-1{fill:#848484;}</style></defs><g id="design"><rect class="cls-1" x="152.5" y="170.6" width="9.21" height="15.95" transform="translate(-80.26 163.39) rotate(-45)"/><polygon class="cls-1" points="140.84 197.65 153.72 210.53 166.74 210.53 147.35 191.14 140.84 197.65"/><polygon class="cls-1" points="187.47 210.53 198.33 210.53 200 208.86 200 195.84 186.39 209.45 187.47 210.53"/><polygon class="cls-1" points="178.01 195.12 200 173.13 200 160.11 171.5 188.61 178.01 195.12"/><polygon class="cls-1" points="163.88 137.8 200 101.67 200 88.66 157.37 131.29 163.88 137.8"/><polygon class="cls-1" points="191.47 60.47 194.42 63.41 187.91 69.91 191.48 73.49 200 64.95 200 51.93 191.47 60.47"/><polygon class="cls-1" points="163.88 173.53 200 137.4 200 124.39 157.37 167.02 163.88 173.53"/><polygon class="cls-1" points="153.72 0 200 46.28 200 33.26 166.74 0 153.72 0"/><polygon class="cls-1" points="128.91 10.92 187.91 69.92 187.91 69.91 184.97 66.98 191.47 60.47 135.42 4.41 128.91 10.92"/><rect class="cls-1" x="185.09" y="63.11" width="9.2" height="4.16" transform="translate(9.46 153.23) rotate(-45)"/><polygon class="cls-1" points="104.54 22.27 111.05 15.77 111.05 15.77 104.54 22.27 173.02 90.76 179.53 84.25 117.56 22.28 111.05 28.78 104.54 22.27"/><rect class="cls-1" x="89.33" y="22.72" width="9.21" height="31.58" transform="translate(0.28 77.7) rotate(-45)"/><polygon class="cls-1" points="126.82 210.53 131.02 210.53 128.92 208.43 126.82 210.53"/><polygon class="cls-1" points="157.6 145.42 92.5 210.53 105.51 210.53 164.11 151.93 157.6 145.42"/><polygon class="cls-1" points="157.6 109.7 56.77 210.53 69.79 210.53 164.11 116.2 157.6 109.7"/><polygon class="cls-1" points="129.31 66.53 0 195.84 0 208.86 135.82 73.04 129.31 66.53"/><polygon class="cls-1" points="111.45 48.66 0 160.11 0 173.13 117.96 55.17 111.45 48.66"/><polygon class="cls-1" points="55.56 33.09 0 88.66 0 101.67 62.07 39.6 55.56 33.09"/><polygon class="cls-1" points="9.32 55.61 2.82 49.1 0 51.93 0 64.95 15.71 49.22 9.32 55.61"/><polygon class="cls-1" points="15.84 49.09 9.33 42.59 9.32 42.59 15.83 49.1 15.84 49.09"/><rect class="cls-1" x="27.92" y="135.06" width="141" height="9.21" transform="translate(-69.93 110.49) rotate(-45)"/><polygon class="cls-1" points="38.8 192.77 21.04 210.53 34.06 210.53 45.31 199.28 38.8 192.77"/><rect class="cls-1" x="40.15" y="58.16" width="55.97" height="9.21" transform="translate(-24.42 66.56) rotate(-45)"/><polygon class="cls-1" points="38.58 85.81 0 124.39 0 137.4 45.09 92.31 38.58 85.81"/><rect class="cls-1" x="23.61" y="16.46" width="9.21" height="31.58" transform="translate(-14.55 29.4) rotate(-45)"/><polygon class="cls-1" points="9.32 42.59 0 33.26 0 46.28 2.82 49.1 9.32 42.59"/><polygon class="cls-1" points="15.83 49.1 15.83 49.1 15.71 49.22 15.83 49.1"/><polygon class="cls-1" points="9.32 55.61 15.71 49.22 15.83 49.1 9.32 42.59 2.82 49.1 9.32 55.61"/><polygon class="cls-1" points="192.9 5.43 198.33 0 187.47 0 192.9 5.43"/><polygon class="cls-1" points="117.56 22.28 128.91 10.92 125.38 7.39 131.89 0.88 135.42 4.41 135.43 4.41 131.02 0 126.82 0 111.05 15.77 117.56 22.28"/><rect class="cls-1" x="125.8" y="3.4" width="9.21" height="5" transform="translate(34.02 93.94) rotate(-45)"/><rect class="cls-1" x="106.45" y="17.67" width="9.2" height="9.21" transform="translate(16.77 85.05) rotate(-45)"/><polygon class="cls-1" points="65.91 39.6 105.51 0 92.5 0 59.4 33.09 65.91 39.6"/><polygon class="cls-1" points="38.36 31.43 69.79 0 56.77 0 31.85 24.92 38.36 31.43"/><polygon class="cls-1" points="11.57 22.49 34.06 0 21.04 0 5.06 15.98 11.57 22.49"/><rect class="cls-1" x="352.5" y="170.6" width="9.21" height="15.95" transform="translate(-21.68 304.81) rotate(-45)"/><polygon class="cls-1" points="340.84 197.65 353.72 210.53 366.74 210.53 347.35 191.14 340.84 197.65"/><polygon class="cls-1" points="387.47 210.53 398.33 210.53 400 208.86 400 195.84 386.39 209.45 387.47 210.53"/><polygon class="cls-1" points="378.01 195.12 400 173.13 400 160.11 371.5 188.61 378.01 195.12"/><polygon class="cls-1" points="363.88 137.8 400 101.67 400 88.66 357.37 131.29 363.88 137.8"/><polygon class="cls-1" points="391.48 60.47 394.42 63.41 387.91 69.91 391.48 73.49 400 64.95 400 51.93 391.48 60.47"/><polygon class="cls-1" points="363.88 173.53 400 137.4 400 124.39 357.37 167.02 363.88 173.53"/><polygon class="cls-1" points="353.72 0 400 46.28 400 33.26 366.74 0 353.72 0"/><polygon class="cls-1" points="328.91 10.92 387.91 69.92 387.91 69.91 384.97 66.98 391.48 60.47 335.42 4.41 328.91 10.92"/><rect class="cls-1" x="385.09" y="63.11" width="9.2" height="4.16" transform="translate(68.04 294.65) rotate(-45)"/><polygon class="cls-1" points="304.54 22.27 311.05 15.77 311.05 15.77 304.54 22.27 373.02 90.76 379.53 84.25 317.56 22.28 311.05 28.78 304.54 22.27"/><rect class="cls-1" x="289.33" y="22.72" width="9.21" height="31.58" transform="translate(58.86 219.12) rotate(-45)"/><polygon class="cls-1" points="326.82 210.53 331.02 210.53 328.92 208.43 326.82 210.53"/><polygon class="cls-1" points="357.6 145.42 292.5 210.53 305.51 210.53 364.11 151.93 357.6 145.42"/><polygon class="cls-1" points="357.6 109.7 256.77 210.53 269.79 210.53 364.11 116.2 357.6 109.7"/><polygon class="cls-1" points="329.31 66.53 200 195.84 200 208.86 335.82 73.04 329.31 66.53"/><polygon class="cls-1" points="311.45 48.66 200 160.11 200 173.13 317.96 55.17 311.45 48.66"/><polygon class="cls-1" points="255.56 33.09 200 88.66 200 101.67 262.07 39.6 255.56 33.09"/><polygon class="cls-1" points="209.32 55.61 202.82 49.1 200 51.93 200 64.95 215.71 49.22 209.32 55.61"/><rect class="cls-1" x="212.58" y="41.24" height="9.21" transform="translate(29.85 163.74) rotate(-45)"/><rect class="cls-1" x="227.92" y="135.06" width="141" height="9.21" transform="translate(-11.36 251.91) rotate(-45)"/><polygon class="cls-1" points="238.8 192.77 221.04 210.53 234.06 210.53 245.31 199.28 238.8 192.77"/><rect class="cls-1" x="240.15" y="58.16" width="55.97" height="9.21" transform="translate(34.15 207.97) rotate(-45)"/><polygon class="cls-1" points="238.58 85.81 200 124.39 200 137.4 245.09 92.31 238.58 85.81"/><rect class="cls-1" x="223.61" y="16.46" width="9.21" height="31.58" transform="translate(44.03 170.82) rotate(-45)"/><polygon class="cls-1" points="209.32 42.59 200 33.26 200 46.28 202.82 49.1 209.32 42.59"/><polygon class="cls-1" points="215.83 49.1 215.83 49.1 215.71 49.22 215.83 49.1"/><polygon class="cls-1" points="209.32 55.61 215.71 49.22 215.83 49.1 209.32 42.59 202.82 49.1 209.32 55.61"/><polygon class="cls-1" points="392.9 5.43 398.33 0 387.47 0 392.9 5.43"/><polygon class="cls-1" points="317.56 22.28 328.91 10.92 325.38 7.39 331.89 0.88 335.42 4.41 335.43 4.41 331.02 0 326.82 0 311.05 15.77 317.56 22.28"/><rect class="cls-1" x="325.8" y="3.4" width="9.21" height="5" transform="translate(92.6 235.36) rotate(-45)"/><rect class="cls-1" x="306.45" y="17.67" width="9.2" height="9.21" transform="translate(75.35 226.47) rotate(-45)"/><polygon class="cls-1" points="265.91 39.6 305.51 0 292.5 0 259.4 33.09 265.91 39.6"/><polygon class="cls-1" points="238.36 31.43 269.79 0 256.77 0 231.85 24.92 238.36 31.43"/><polygon class="cls-1" points="211.57 22.49 234.06 0 221.04 0 205.06 15.98 211.57 22.49"/><rect class="cls-1" x="552.5" y="170.6" width="9.21" height="15.95" transform="translate(36.9 446.23) rotate(-45)"/><polygon class="cls-1" points="540.84 197.65 553.72 210.53 566.74 210.53 547.35 191.14 540.84 197.65"/><polygon class="cls-1" points="587.47 210.53 598.33 210.53 600 208.86 600 195.84 586.39 209.45 587.47 210.53"/><polygon class="cls-1" points="578.01 195.12 600 173.13 600 160.11 571.5 188.61 578.01 195.12"/><polygon class="cls-1" points="563.88 137.8 600 101.67 600 88.66 557.37 131.29 563.88 137.8"/><polygon class="cls-1" points="591.48 60.47 594.42 63.41 587.91 69.91 591.48 73.49 600 64.95 600 51.93 591.48 60.47"/><polygon class="cls-1" points="563.88 173.53 600 137.4 600 124.39 557.37 167.02 563.88 173.53"/><polygon class="cls-1" points="553.72 0 600 46.28 600 33.26 566.74 0 553.72 0"/><polygon class="cls-1" points="528.91 10.92 587.91 69.92 587.91 69.91 584.97 66.98 591.48 60.47 535.42 4.41 528.91 10.92"/><rect class="cls-1" x="585.09" y="63.11" width="9.2" height="4.16" transform="translate(126.62 436.07) rotate(-45)"/><polygon class="cls-1" points="504.54 22.27 511.05 15.77 511.05 15.77 504.54 22.27 573.02 90.76 579.53 84.25 517.56 22.28 511.05 28.78 504.54 22.27"/><rect class="cls-1" x="489.33" y="22.72" width="9.21" height="31.58" transform="translate(117.43 360.54) rotate(-45)"/><polygon class="cls-1" points="526.82 210.53 531.02 210.53 528.92 208.43 526.82 210.53"/><polygon class="cls-1" points="557.6 145.42 492.5 210.53 505.51 210.53 564.11 151.93 557.6 145.42"/><polygon class="cls-1" points="557.6 109.7 456.77 210.53 469.79 210.53 564.11 116.2 557.6 109.7"/><polygon class="cls-1" points="529.31 66.53 400 195.84 400 208.86 535.82 73.04 529.31 66.53"/><polygon class="cls-1" points="511.45 48.66 400 160.11 400 173.13 517.96 55.17 511.45 48.66"/><polygon class="cls-1" points="455.56 33.09 400 88.66 400 101.67 462.07 39.6 455.56 33.09"/><polygon class="cls-1" points="409.32 55.61 402.82 49.1 400 51.93 400 64.95 415.71 49.22 409.32 55.61"/><rect class="cls-1" x="412.58" y="41.24" height="9.21" transform="translate(88.43 305.16) rotate(-45)"/><rect class="cls-1" x="427.92" y="135.06" width="141" height="9.21" transform="translate(47.22 393.32) rotate(-45)"/><polygon class="cls-1" points="438.8 192.77 421.04 210.53 434.06 210.53 445.31 199.28 438.8 192.77"/><rect class="cls-1" x="440.15" y="58.16" width="55.97" height="9.21" transform="translate(92.72 349.39) rotate(-45)"/><polygon class="cls-1" points="438.58 85.81 400 124.39 400 137.4 445.09 92.31 438.58 85.81"/><rect class="cls-1" x="423.61" y="16.46" width="9.21" height="31.58" transform="translate(102.61 312.24) rotate(-45)"/><polygon class="cls-1" points="409.32 42.59 400 33.26 400 46.28 402.82 49.1 409.32 42.59"/><polygon class="cls-1" points="415.83 49.1 415.83 49.1 415.71 49.22 415.83 49.1"/><polygon class="cls-1" points="409.32 55.61 415.71 49.22 415.83 49.1 409.32 42.59 402.82 49.1 409.32 55.61"/><polygon class="cls-1" points="592.9 5.43 598.33 0 587.47 0 592.9 5.43"/><polygon class="cls-1" points="517.56 22.28 528.91 10.92 525.38 7.39 531.89 0.88 535.42 4.41 535.43 4.41 531.02 0 526.82 0 511.05 15.77 517.56 22.28"/><rect class="cls-1" x="525.8" y="3.4" width="9.21" height="5" transform="translate(151.18 376.78) rotate(-45)"/><rect class="cls-1" x="506.45" y="17.67" width="9.2" height="9.21" transform="translate(133.93 367.89) rotate(-45)"/><polygon class="cls-1" points="465.91 39.6 505.51 0 492.5 0 459.4 33.09 465.91 39.6"/><polygon class="cls-1" points="438.36 31.43 469.79 0 456.77 0 431.85 24.92 438.36 31.43"/><polygon class="cls-1" points="411.57 22.49 434.06 0 421.04 0 405.06 15.98 411.57 22.49"/><rect class="cls-1" x="752.5" y="170.6" width="9.21" height="15.95" transform="translate(95.48 587.65) rotate(-45)"/><polygon class="cls-1" points="740.84 197.65 753.72 210.53 766.74 210.53 747.35 191.14 740.84 197.65"/><polygon class="cls-1" points="787.47 210.53 798.33 210.53 800 208.86 800 195.84 786.39 209.45 787.47 210.53"/><polygon class="cls-1" points="778.01 195.12 800 173.13 800 160.11 771.5 188.61 778.01 195.12"/><polygon class="cls-1" points="763.88 137.8 800 101.67 800 88.66 757.37 131.29 763.88 137.8"/><polygon class="cls-1" points="791.48 60.47 794.42 63.41 787.91 69.91 791.48 73.49 800 64.95 800 51.93 791.48 60.47"/><polygon class="cls-1" points="763.88 173.53 800 137.4 800 124.39 757.37 167.02 763.88 173.53"/><polygon class="cls-1" points="753.72 0 800 46.28 800 33.26 766.74 0 753.72 0"/><polygon class="cls-1" points="728.91 10.92 787.91 69.92 787.91 69.91 784.97 66.98 791.48 60.47 735.42 4.41 728.91 10.92"/><rect class="cls-1" x="785.09" y="63.11" width="9.2" height="4.16" transform="translate(185.2 577.49) rotate(-45)"/><polygon class="cls-1" points="704.54 22.27 711.05 15.77 711.05 15.77 704.54 22.27 773.02 90.76 779.53 84.25 717.56 22.28 711.05 28.78 704.54 22.27"/><rect class="cls-1" x="689.33" y="22.72" width="9.21" height="31.58" transform="translate(176.01 501.96) rotate(-45)"/><polygon class="cls-1" points="726.82 210.53 731.02 210.53 728.92 208.43 726.82 210.53"/><polygon class="cls-1" points="757.6 145.42 692.5 210.53 705.51 210.53 764.11 151.93 757.6 145.42"/><polygon class="cls-1" points="757.6 109.7 656.77 210.53 669.79 210.53 764.11 116.2 757.6 109.7"/><polygon class="cls-1" points="729.31 66.53 600 195.84 600 208.86 735.82 73.04 729.31 66.53"/><polygon class="cls-1" points="711.45 48.66 600 160.11 600 173.13 717.96 55.17 711.45 48.66"/><polygon class="cls-1" points="655.56 33.09 600 88.66 600 101.67 662.07 39.6 655.56 33.09"/><polygon class="cls-1" points="609.32 55.61 602.82 49.1 600 51.93 600 64.95 615.71 49.22 609.32 55.61"/><rect class="cls-1" x="612.58" y="41.24" height="9.21" transform="translate(147 446.58) rotate(-45)"/><rect class="cls-1" x="627.92" y="135.06" width="141" height="9.21" transform="translate(105.79 534.74) rotate(-45)"/><polygon class="cls-1" points="638.8 192.77 621.04 210.53 634.06 210.53 645.31 199.28 638.8 192.77"/><rect class="cls-1" x="640.15" y="58.16" width="55.97" height="9.21" transform="translate(151.3 490.8) rotate(-45)"/><polygon class="cls-1" points="638.58 85.81 600 124.39 600 137.4 645.09 92.31 638.58 85.81"/><rect class="cls-1" x="623.61" y="16.46" width="9.21" height="31.58" transform="translate(161.19 453.66) rotate(-45)"/><polygon class="cls-1" points="609.32 42.59 600 33.26 600 46.28 602.82 49.1 609.32 42.59"/><polygon class="cls-1" points="615.83 49.1 615.83 49.1 615.71 49.22 615.83 49.1"/><polygon class="cls-1" points="609.32 55.61 615.71 49.22 615.83 49.1 609.32 42.59 602.82 49.1 609.32 55.61"/><polygon class="cls-1" points="792.9 5.43 798.33 0 787.47 0 792.9 5.43"/><polygon class="cls-1" points="717.56 22.28 728.91 10.92 725.38 7.39 731.89 0.88 735.42 4.41 735.43 4.41 731.02 0 726.82 0 711.05 15.77 717.56 22.28"/><rect class="cls-1" x="725.8" y="3.4" width="9.21" height="5" transform="translate(209.76 518.2) rotate(-45)"/><rect class="cls-1" x="706.45" y="17.67" width="9.2" height="9.21" transform="translate(192.51 509.31) rotate(-45)"/><polygon class="cls-1" points="665.91 39.6 705.51 0 692.5 0 659.4 33.09 665.91 39.6"/><polygon class="cls-1" points="638.36 31.43 669.79 0 656.77 0 631.85 24.92 638.36 31.43"/><polygon class="cls-1" points="611.57 22.49 634.06 0 621.04 0 605.06 15.98 611.57 22.49"/><rect class="cls-1" x="152.5" y="381.13" width="9.21" height="15.95" transform="translate(-229.12 225.05) rotate(-45)"/><polygon class="cls-1" points="140.84 408.17 153.72 421.05 166.74 421.05 147.35 401.66 140.84 408.17"/><polygon class="cls-1" points="187.47 421.05 198.33 421.05 200 419.38 200 406.37 186.39 419.97 187.47 421.05"/><polygon class="cls-1" points="178.01 405.65 200 383.66 200 370.64 171.5 399.14 178.01 405.65"/><polygon class="cls-1" points="163.88 348.32 200 312.2 200 299.18 157.37 341.82 163.88 348.32"/><polygon class="cls-1" points="191.47 270.99 194.42 273.93 187.91 280.44 191.48 284.01 200 275.48 200 262.45 191.47 270.99"/><polygon class="cls-1" points="163.88 384.05 200 347.93 200 334.91 157.37 377.54 163.88 384.05"/><polygon class="cls-1" points="153.72 210.53 200 256.81 200 243.79 166.74 210.53 153.72 210.53"/><polygon class="cls-1" points="128.91 221.45 187.91 280.44 187.91 280.44 184.97 277.5 191.47 270.99 135.42 214.94 128.91 221.45"/><rect class="cls-1" x="185.09" y="273.64" width="9.2" height="4.16" transform="translate(-139.4 214.89) rotate(-45)"/><polygon class="cls-1" points="104.54 232.8 111.05 226.29 111.05 226.29 104.54 232.8 173.02 301.29 179.53 294.78 117.56 232.8 111.05 239.31 104.54 232.8"/><rect class="cls-1" x="89.33" y="233.25" width="9.21" height="31.58" transform="translate(-148.58 139.36) rotate(-45)"/><polygon class="cls-1" points="126.82 421.05 131.02 421.05 128.92 418.95 126.82 421.05"/><polygon class="cls-1" points="157.6 355.95 92.5 421.05 105.51 421.05 164.11 362.46 157.6 355.95"/><polygon class="cls-1" points="157.6 320.22 56.77 421.05 69.79 421.05 164.11 326.73 157.6 320.22"/><polygon class="cls-1" points="129.31 277.06 0 406.37 0 419.38 135.82 283.56 129.31 277.06"/><polygon class="cls-1" points="111.45 259.19 0 370.64 0 383.66 117.96 265.7 111.45 259.19"/><polygon class="cls-1" points="55.56 243.62 0 299.18 0 312.2 62.07 250.13 55.56 243.62"/><polygon class="cls-1" points="9.32 266.13 2.82 259.63 0 262.45 0 275.48 15.71 259.75 9.32 266.13"/><polygon class="cls-1" points="15.84 259.62 9.33 253.11 9.32 253.11 15.83 259.62 15.84 259.62"/><rect class="cls-1" x="27.92" y="345.59" width="141" height="9.21" transform="translate(-218.79 172.14) rotate(-45)"/><polygon class="cls-1" points="38.8 403.29 21.04 421.05 34.06 421.05 45.31 409.8 38.8 403.29"/><rect class="cls-1" x="40.15" y="268.69" width="55.97" height="9.21" transform="translate(-173.28 128.21) rotate(-45)"/><polygon class="cls-1" points="38.58 296.33 0 334.91 0 347.93 45.09 302.84 38.58 296.33"/><rect class="cls-1" x="23.61" y="226.99" width="9.21" height="31.58" transform="translate(-163.41 91.06) rotate(-45)"/><polygon class="cls-1" points="9.32 253.11 0 243.79 0 256.81 2.82 259.63 9.32 253.11"/><polygon class="cls-1" points="15.83 259.62 15.83 259.62 15.71 259.75 15.83 259.62"/><polygon class="cls-1" points="9.32 266.13 15.71 259.75 15.83 259.62 9.32 253.11 2.82 259.63 9.32 266.13"/><polygon class="cls-1" points="192.9 215.96 198.33 210.53 187.47 210.53 192.9 215.96"/><polygon class="cls-1" points="117.56 232.8 128.91 221.45 125.38 217.91 131.89 211.41 135.42 214.94 135.43 214.93 131.02 210.53 126.82 210.53 111.05 226.29 117.56 232.8"/><rect class="cls-1" x="125.8" y="213.93" width="9.21" height="5" transform="translate(-114.84 155.6) rotate(-45)"/><rect class="cls-1" x="106.45" y="228.2" width="9.2" height="9.21" transform="translate(-132.09 146.71) rotate(-45)"/><polygon class="cls-1" points="65.91 250.13 105.51 210.53 92.5 210.53 59.4 243.62 65.91 250.13"/><polygon class="cls-1" points="38.36 241.96 69.79 210.53 56.77 210.53 31.85 235.45 38.36 241.96"/><polygon class="cls-1" points="11.57 233.02 34.06 210.53 21.04 210.53 5.06 226.51 11.57 233.02"/><rect class="cls-1" x="352.5" y="381.13" width="9.21" height="15.95" transform="translate(-170.54 366.48) rotate(-45)"/><polygon class="cls-1" points="340.84 408.17 353.72 421.05 366.74 421.05 347.35 401.66 340.84 408.17"/><polygon class="cls-1" points="387.47 421.05 398.33 421.05 400 419.38 400 406.37 386.39 419.97 387.47 421.05"/><polygon class="cls-1" points="378.01 405.65 400 383.66 400 370.64 371.5 399.14 378.01 405.65"/><polygon class="cls-1" points="363.88 348.32 400 312.2 400 299.18 357.37 341.82 363.88 348.32"/><polygon class="cls-1" points="391.48 270.99 394.42 273.93 387.91 280.44 391.48 284.01 400 275.48 400 262.45 391.48 270.99"/><polygon class="cls-1" points="363.88 384.05 400 347.93 400 334.91 357.37 377.54 363.88 384.05"/><polygon class="cls-1" points="353.72 210.53 400 256.81 400 243.79 366.74 210.53 353.72 210.53"/><polygon class="cls-1" points="328.91 221.45 387.91 280.44 387.91 280.44 384.97 277.5 391.48 270.99 335.42 214.94 328.91 221.45"/><rect class="cls-1" x="385.09" y="273.64" width="9.2" height="4.16" transform="translate(-80.82 356.31) rotate(-45)"/><polygon class="cls-1" points="304.54 232.8 311.05 226.29 311.05 226.29 304.54 232.8 373.02 301.29 379.53 294.78 317.56 232.8 311.05 239.31 304.54 232.8"/><rect class="cls-1" x="289.33" y="233.25" width="9.21" height="31.58" transform="translate(-90 280.78) rotate(-45)"/><polygon class="cls-1" points="326.82 421.05 331.02 421.05 328.92 418.95 326.82 421.05"/><polygon class="cls-1" points="357.6 355.95 292.5 421.05 305.51 421.05 364.11 362.46 357.6 355.95"/><polygon class="cls-1" points="357.6 320.22 256.77 421.05 269.79 421.05 364.11 326.73 357.6 320.22"/><polygon class="cls-1" points="329.31 277.06 200 406.37 200 419.38 335.82 283.56 329.31 277.06"/><polygon class="cls-1" points="311.45 259.19 200 370.64 200 383.66 317.96 265.7 311.45 259.19"/><polygon class="cls-1" points="255.56 243.62 200 299.18 200 312.2 262.07 250.13 255.56 243.62"/><polygon class="cls-1" points="209.32 266.13 202.82 259.63 200 262.45 200 275.48 215.71 259.75 209.32 266.13"/><rect class="cls-1" x="212.58" y="251.76" height="9.21" transform="translate(-119.02 225.4) rotate(-45)"/><rect class="cls-1" x="227.92" y="345.59" width="141" height="9.21" transform="translate(-160.22 313.56) rotate(-45)"/><polygon class="cls-1" points="238.8 403.29 221.04 421.05 234.06 421.05 245.31 409.8 238.8 403.29"/><rect class="cls-1" x="240.15" y="268.69" width="55.97" height="9.21" transform="translate(-114.71 269.63) rotate(-45)"/><polygon class="cls-1" points="238.58 296.33 200 334.91 200 347.93 245.09 302.84 238.58 296.33"/><rect class="cls-1" x="223.61" y="226.99" width="9.21" height="31.58" transform="translate(-104.83 232.48) rotate(-45)"/><polygon class="cls-1" points="209.32 253.11 200 243.79 200 256.81 202.82 259.63 209.32 253.11"/><polygon class="cls-1" points="215.83 259.62 215.83 259.62 215.71 259.75 215.83 259.62"/><polygon class="cls-1" points="209.32 266.13 215.71 259.75 215.83 259.62 209.32 253.11 202.82 259.63 209.32 266.13"/><polygon class="cls-1" points="392.9 215.96 398.33 210.53 387.47 210.53 392.9 215.96"/><polygon class="cls-1" points="317.56 232.8 328.91 221.45 325.38 217.91 331.89 211.41 335.42 214.94 335.43 214.93 331.02 210.53 326.82 210.53 311.05 226.29 317.56 232.8"/><rect class="cls-1" x="325.8" y="213.93" width="9.21" height="5" transform="translate(-56.26 297.02) rotate(-45)"/><rect class="cls-1" x="306.45" y="228.2" width="9.2" height="9.21" transform="translate(-73.51 288.13) rotate(-45)"/><polygon class="cls-1" points="265.91 250.13 305.51 210.53 292.5 210.53 259.4 243.62 265.91 250.13"/><polygon class="cls-1" points="238.36 241.96 269.79 210.53 256.77 210.53 231.85 235.45 238.36 241.96"/><polygon class="cls-1" points="211.57 233.02 234.06 210.53 221.04 210.53 205.06 226.51 211.57 233.02"/><rect class="cls-1" x="552.5" y="381.13" width="9.21" height="15.95" transform="translate(-111.96 507.9) rotate(-45)"/><polygon class="cls-1" points="540.84 408.17 553.72 421.05 566.74 421.05 547.35 401.66 540.84 408.17"/><polygon class="cls-1" points="587.47 421.05 598.33 421.05 600 419.38 600 406.37 586.39 419.97 587.47 421.05"/><polygon class="cls-1" points="578.01 405.65 600 383.66 600 370.64 571.5 399.14 578.01 405.65"/><polygon class="cls-1" points="563.88 348.32 600 312.2 600 299.18 557.37 341.82 563.88 348.32"/><polygon class="cls-1" points="591.48 270.99 594.42 273.93 587.91 280.44 591.48 284.01 600 275.48 600 262.45 591.48 270.99"/><polygon class="cls-1" points="563.88 384.05 600 347.93 600 334.91 557.37 377.54 563.88 384.05"/><polygon class="cls-1" points="553.72 210.53 600 256.81 600 243.79 566.74 210.53 553.72 210.53"/><polygon class="cls-1" points="528.91 221.45 587.91 280.44 587.91 280.44 584.97 277.5 591.48 270.99 535.42 214.94 528.91 221.45"/><rect class="cls-1" x="585.09" y="273.64" width="9.2" height="4.16" transform="translate(-22.24 497.73) rotate(-45)"/><polygon class="cls-1" points="504.54 232.8 511.05 226.29 511.05 226.29 504.54 232.8 573.02 301.29 579.53 294.78 517.56 232.8 511.05 239.31 504.54 232.8"/><rect class="cls-1" x="489.33" y="233.25" width="9.21" height="31.58" transform="translate(-31.43 422.2) rotate(-45)"/><polygon class="cls-1" points="526.82 421.05 531.02 421.05 528.92 418.95 526.82 421.05"/><polygon class="cls-1" points="557.6 355.95 492.5 421.05 505.51 421.05 564.11 362.46 557.6 355.95"/><polygon class="cls-1" points="557.6 320.22 456.77 421.05 469.79 421.05 564.11 326.73 557.6 320.22"/><polygon class="cls-1" points="529.31 277.06 400 406.37 400 419.38 535.82 283.56 529.31 277.06"/><polygon class="cls-1" points="511.45 259.19 400 370.64 400 383.66 517.96 265.7 511.45 259.19"/><polygon class="cls-1" points="455.56 243.62 400 299.18 400 312.2 462.07 250.13 455.56 243.62"/><polygon class="cls-1" points="409.32 266.13 402.82 259.63 400 262.45 400 275.48 415.71 259.75 409.32 266.13"/><rect class="cls-1" x="412.58" y="251.76" height="9.21" transform="translate(-60.44 366.83) rotate(-45)"/><rect class="cls-1" x="427.92" y="345.59" width="141" height="9.21" transform="translate(-101.64 454.98) rotate(-45)"/><polygon class="cls-1" points="438.8 403.29 421.04 421.05 434.06 421.05 445.31 409.8 438.8 403.29"/><rect class="cls-1" x="440.15" y="268.69" width="55.97" height="9.21" transform="translate(-56.14 411.04) rotate(-45)"/><polygon class="cls-1" points="438.58 296.33 400 334.91 400 347.93 445.09 302.84 438.58 296.33"/><rect class="cls-1" x="423.61" y="226.99" width="9.21" height="31.58" transform="translate(-46.25 373.9) rotate(-45)"/><polygon class="cls-1" points="409.32 253.11 400 243.79 400 256.81 402.82 259.63 409.32 253.11"/><polygon class="cls-1" points="415.83 259.62 415.83 259.62 415.71 259.75 415.83 259.62"/><polygon class="cls-1" points="409.32 266.13 415.71 259.75 415.83 259.62 409.32 253.11 402.82 259.63 409.32 266.13"/><polygon class="cls-1" points="592.9 215.96 598.33 210.53 587.47 210.53 592.9 215.96"/><polygon class="cls-1" points="517.56 232.8 528.91 221.45 525.38 217.91 531.89 211.41 535.42 214.94 535.43 214.93 531.02 210.53 526.82 210.53 511.05 226.29 517.56 232.8"/><rect class="cls-1" x="525.8" y="213.93" width="9.21" height="5" transform="translate(2.32 438.44) rotate(-45)"/><rect class="cls-1" x="506.45" y="228.2" width="9.2" height="9.21" transform="translate(-14.93 429.55) rotate(-45)"/><polygon class="cls-1" points="465.91 250.13 505.51 210.53 492.5 210.53 459.4 243.62 465.91 250.13"/><polygon class="cls-1" points="438.36 241.96 469.79 210.53 456.77 210.53 431.85 235.45 438.36 241.96"/><polygon class="cls-1" points="411.57 233.02 434.06 210.53 421.04 210.53 405.06 226.51 411.57 233.02"/><rect class="cls-1" x="752.5" y="381.13" width="9.21" height="15.95" transform="translate(-53.39 649.32) rotate(-45)"/><polygon class="cls-1" points="740.84 408.17 753.72 421.05 766.74 421.05 747.35 401.66 740.84 408.17"/><polygon class="cls-1" points="787.47 421.05 798.33 421.05 800 419.38 800 406.37 786.39 419.97 787.47 421.05"/><polygon class="cls-1" points="778.01 405.65 800 383.66 800 370.64 771.5 399.14 778.01 405.65"/><polygon class="cls-1" points="763.88 348.32 800 312.2 800 299.18 757.37 341.82 763.88 348.32"/><polygon class="cls-1" points="791.48 270.99 794.42 273.93 787.91 280.44 791.48 284.01 800 275.48 800 262.45 791.48 270.99"/><polygon class="cls-1" points="763.88 384.05 800 347.93 800 334.91 757.37 377.54 763.88 384.05"/><polygon class="cls-1" points="753.72 210.53 800 256.81 800 243.79 766.74 210.53 753.72 210.53"/><polygon class="cls-1" points="728.91 221.45 787.91 280.44 787.91 280.44 784.97 277.5 791.48 270.99 735.42 214.94 728.91 221.45"/><rect class="cls-1" x="785.09" y="273.64" width="9.2" height="4.16" transform="translate(36.33 639.15) rotate(-45)"/><polygon class="cls-1" points="704.54 232.8 711.05 226.29 711.05 226.29 704.54 232.8 773.02 301.29 779.53 294.78 717.56 232.8 711.05 239.31 704.54 232.8"/><rect class="cls-1" x="689.33" y="233.25" width="9.21" height="31.58" transform="translate(27.15 563.62) rotate(-45)"/><polygon class="cls-1" points="726.82 421.05 731.02 421.05 728.92 418.95 726.82 421.05"/><polygon class="cls-1" points="757.6 355.95 692.5 421.05 705.51 421.05 764.11 362.46 757.6 355.95"/><polygon class="cls-1" points="757.6 320.22 656.77 421.05 669.79 421.05 764.11 326.73 757.6 320.22"/><polygon class="cls-1" points="729.31 277.06 600 406.37 600 419.38 735.82 283.56 729.31 277.06"/><polygon class="cls-1" points="711.45 259.19 600 370.64 600 383.66 717.96 265.7 711.45 259.19"/><polygon class="cls-1" points="655.56 243.62 600 299.18 600 312.2 662.07 250.13 655.56 243.62"/><polygon class="cls-1" points="609.32 266.13 602.82 259.63 600 262.45 600 275.48 615.71 259.75 609.32 266.13"/><rect class="cls-1" x="612.58" y="251.76" height="9.21" transform="translate(-1.86 508.25) rotate(-45)"/><rect class="cls-1" x="627.92" y="345.59" width="141" height="9.21" transform="translate(-43.07 596.39) rotate(-45)"/><polygon class="cls-1" points="638.8 403.29 621.04 421.05 634.06 421.05 645.31 409.8 638.8 403.29"/><rect class="cls-1" x="640.15" y="268.69" width="55.97" height="9.21" transform="translate(2.44 552.46) rotate(-45)"/><polygon class="cls-1" points="638.58 296.33 600 334.91 600 347.93 645.09 302.84 638.58 296.33"/><rect class="cls-1" x="623.61" y="226.99" width="9.21" height="31.58" transform="translate(12.33 515.32) rotate(-45)"/><polygon class="cls-1" points="609.32 253.11 600 243.79 600 256.81 602.82 259.63 609.32 253.11"/><polygon class="cls-1" points="615.83 259.62 615.83 259.62 615.71 259.75 615.83 259.62"/><polygon class="cls-1" points="609.32 266.13 615.71 259.75 615.83 259.62 609.32 253.11 602.82 259.63 609.32 266.13"/><polygon class="cls-1" points="792.9 215.96 798.33 210.53 787.47 210.53 792.9 215.96"/><polygon class="cls-1" points="717.56 232.8 728.91 221.45 725.38 217.91 731.89 211.41 735.42 214.94 735.43 214.93 731.02 210.53 726.82 210.53 711.05 226.29 717.56 232.8"/><rect class="cls-1" x="725.8" y="213.93" width="9.21" height="5" transform="translate(60.9 579.87) rotate(-45)"/><rect class="cls-1" x="706.45" y="228.2" width="9.2" height="9.21" transform="translate(43.65 570.97) rotate(-45)"/><polygon class="cls-1" points="665.91 250.13 705.51 210.53 692.5 210.53 659.4 243.62 665.91 250.13"/><polygon class="cls-1" points="638.36 241.96 669.79 210.53 656.77 210.53 631.85 235.45 638.36 241.96"/><polygon class="cls-1" points="611.57 233.02 634.06 210.53 621.04 210.53 605.06 226.51 611.57 233.02"/><rect class="cls-1" x="152.5" y="591.65" width="9.21" height="15.95" transform="translate(-377.99 286.72) rotate(-45)"/><polygon class="cls-1" points="140.84 618.7 153.72 631.58 166.74 631.58 147.35 612.19 140.84 618.7"/><polygon class="cls-1" points="187.47 631.58 198.33 631.58 200 629.91 200 616.89 186.39 630.5 187.47 631.58"/><polygon class="cls-1" points="178.01 616.17 200 594.18 200 581.16 171.5 609.66 178.01 616.17"/><polygon class="cls-1" points="163.88 558.85 200 522.73 200 509.71 157.37 552.34 163.88 558.85"/><polygon class="cls-1" points="191.47 481.52 194.42 484.46 187.91 490.97 191.48 494.54 200 486.01 200 472.98 191.47 481.52"/><polygon class="cls-1" points="163.88 594.58 200 558.46 200 545.44 157.37 588.07 163.88 594.58"/><polygon class="cls-1" points="153.72 421.05 200 467.33 200 454.32 166.74 421.05 153.72 421.05"/><polygon class="cls-1" points="128.91 431.97 187.91 490.97 187.91 490.97 184.97 488.03 191.47 481.52 135.42 425.46 128.91 431.97"/><rect class="cls-1" x="185.09" y="484.17" width="9.2" height="4.16" transform="translate(-288.27 276.55) rotate(-45)"/><polygon class="cls-1" points="104.54 443.33 111.05 436.82 111.05 436.82 104.54 443.33 173.02 511.81 179.53 505.3 117.56 443.33 111.05 449.84 104.54 443.33"/><rect class="cls-1" x="89.33" y="443.77" width="9.21" height="31.58" transform="translate(-297.44 201.02) rotate(-45)"/><polygon class="cls-1" points="126.82 631.58 131.02 631.58 128.92 629.48 126.82 631.58"/><polygon class="cls-1" points="157.6 566.48 92.5 631.58 105.51 631.58 164.11 572.99 157.6 566.48"/><polygon class="cls-1" points="157.6 530.75 56.77 631.58 69.79 631.58 164.11 537.26 157.6 530.75"/><polygon class="cls-1" points="129.31 487.58 0 616.89 0 629.91 135.82 494.09 129.31 487.58"/><polygon class="cls-1" points="111.45 469.71 0 581.16 0 594.18 117.96 476.22 111.45 469.71"/><polygon class="cls-1" points="55.56 454.15 0 509.71 0 522.73 62.07 460.65 55.56 454.15"/><polygon class="cls-1" points="9.32 476.66 2.82 470.15 0 472.98 0 486.01 15.71 470.27 9.32 476.66"/><polygon class="cls-1" points="15.84 470.15 9.33 463.64 9.32 463.64 15.83 470.15 15.84 470.15"/><rect class="cls-1" x="27.92" y="556.11" width="141" height="9.21" transform="translate(-367.65 233.8) rotate(-45)"/><polygon class="cls-1" points="38.8 613.82 21.04 631.58 34.06 631.58 45.31 620.33 38.8 613.82"/><rect class="cls-1" x="40.15" y="479.21" width="55.97" height="9.21" transform="translate(-322.14 189.87) rotate(-45)"/><polygon class="cls-1" points="38.58 506.86 0 545.44 0 558.46 45.09 513.37 38.58 506.86"/><rect class="cls-1" x="23.61" y="437.52" width="9.21" height="31.58" transform="translate(-312.27 152.72) rotate(-45)"/><polygon class="cls-1" points="9.32 463.64 0 454.32 0 467.33 2.82 470.15 9.32 463.64"/><polygon class="cls-1" points="15.83 470.15 15.83 470.15 15.71 470.27 15.83 470.15"/><polygon class="cls-1" points="9.32 476.66 15.71 470.27 15.83 470.15 9.32 463.64 2.82 470.15 9.32 476.66"/><polygon class="cls-1" points="192.9 426.48 198.33 421.05 187.47 421.05 192.9 426.48"/><polygon class="cls-1" points="117.56 443.33 128.91 431.97 125.38 428.44 131.89 421.93 135.42 425.46 135.43 425.46 131.02 421.05 126.82 421.05 111.05 436.82 117.56 443.33"/><rect class="cls-1" x="125.8" y="424.45" width="9.21" height="5" transform="translate(-263.71 217.26) rotate(-45)"/><rect class="cls-1" x="106.45" y="438.73" width="9.2" height="9.21" transform="translate(-280.95 208.37) rotate(-45)"/><polygon class="cls-1" points="65.91 460.65 105.51 421.05 92.5 421.05 59.4 454.15 65.91 460.65"/><polygon class="cls-1" points="38.36 452.48 69.79 421.05 56.77 421.05 31.85 445.97 38.36 452.48"/><polygon class="cls-1" points="11.57 443.54 34.06 421.05 21.04 421.05 5.06 437.03 11.57 443.54"/><rect class="cls-1" x="352.5" y="591.65" width="9.21" height="15.95" transform="translate(-319.41 428.14) rotate(-45)"/><polygon class="cls-1" points="340.84 618.7 353.72 631.58 366.74 631.58 347.35 612.19 340.84 618.7"/><polygon class="cls-1" points="387.47 631.58 398.33 631.58 400 629.91 400 616.89 386.39 630.5 387.47 631.58"/><polygon class="cls-1" points="378.01 616.17 400 594.18 400 581.16 371.5 609.66 378.01 616.17"/><polygon class="cls-1" points="363.88 558.85 400 522.73 400 509.71 357.37 552.34 363.88 558.85"/><polygon class="cls-1" points="391.48 481.52 394.42 484.46 387.91 490.97 391.48 494.54 400 486.01 400 472.98 391.48 481.52"/><polygon class="cls-1" points="363.88 594.58 400 558.46 400 545.44 357.37 588.07 363.88 594.58"/><polygon class="cls-1" points="353.72 421.05 400 467.33 400 454.32 366.74 421.05 353.72 421.05"/><polygon class="cls-1" points="328.91 431.97 387.91 490.97 387.91 490.97 384.97 488.03 391.48 481.52 335.42 425.46 328.91 431.97"/><rect class="cls-1" x="385.09" y="484.17" width="9.2" height="4.16" transform="translate(-229.69 417.97) rotate(-45)"/><polygon class="cls-1" points="304.54 443.33 311.05 436.82 311.05 436.82 304.54 443.33 373.02 511.81 379.53 505.3 317.56 443.33 311.05 449.84 304.54 443.33"/><rect class="cls-1" x="289.33" y="443.77" width="9.21" height="31.58" transform="translate(-238.87 342.44) rotate(-45)"/><polygon class="cls-1" points="326.82 631.58 331.02 631.58 328.92 629.48 326.82 631.58"/><polygon class="cls-1" points="357.6 566.48 292.5 631.58 305.51 631.58 364.11 572.99 357.6 566.48"/><polygon class="cls-1" points="357.6 530.75 256.77 631.58 269.79 631.58 364.11 537.26 357.6 530.75"/><polygon class="cls-1" points="329.31 487.58 200 616.89 200 629.91 335.82 494.09 329.31 487.58"/><polygon class="cls-1" points="311.45 469.71 200 581.16 200 594.18 317.96 476.22 311.45 469.71"/><polygon class="cls-1" points="255.56 454.15 200 509.71 200 522.73 262.07 460.65 255.56 454.15"/><polygon class="cls-1" points="209.32 476.66 202.82 470.15 200 472.98 200 486.01 215.71 470.27 209.32 476.66"/><rect class="cls-1" x="212.58" y="462.29" height="9.21" transform="translate(-267.88 287.07) rotate(-45)"/><rect class="cls-1" x="227.92" y="556.11" width="141" height="9.21" transform="translate(-309.08 375.22) rotate(-45)"/><polygon class="cls-1" points="238.8 613.82 221.04 631.58 234.06 631.58 245.31 620.33 238.8 613.82"/><rect class="cls-1" x="240.15" y="479.21" width="55.97" height="9.21" transform="translate(-263.57 331.28) rotate(-45)"/><polygon class="cls-1" points="238.58 506.86 200 545.44 200 558.46 245.09 513.37 238.58 506.86"/><rect class="cls-1" x="223.61" y="437.52" width="9.21" height="31.58" transform="translate(-253.7 294.14) rotate(-45)"/><polygon class="cls-1" points="209.32 463.64 200 454.32 200 467.33 202.82 470.15 209.32 463.64"/><polygon class="cls-1" points="215.83 470.15 215.83 470.15 215.71 470.27 215.83 470.15"/><polygon class="cls-1" points="209.32 476.66 215.71 470.27 215.83 470.15 209.32 463.64 202.82 470.15 209.32 476.66"/><polygon class="cls-1" points="392.9 426.48 398.33 421.05 387.47 421.05 392.9 426.48"/><polygon class="cls-1" points="317.56 443.33 328.91 431.97 325.38 428.44 331.89 421.93 335.42 425.46 335.43 425.46 331.02 421.05 326.82 421.05 311.05 436.82 317.56 443.33"/><rect class="cls-1" x="325.8" y="424.45" width="9.21" height="5" transform="translate(-205.13 358.68) rotate(-45)"/><rect class="cls-1" x="306.45" y="438.73" width="9.2" height="9.21" transform="translate(-222.38 349.79) rotate(-45)"/><polygon class="cls-1" points="265.91 460.65 305.51 421.05 292.5 421.05 259.4 454.15 265.91 460.65"/><polygon class="cls-1" points="238.36 452.48 269.79 421.05 256.77 421.05 231.85 445.97 238.36 452.48"/><polygon class="cls-1" points="211.57 443.54 234.06 421.05 221.04 421.05 205.06 437.03 211.57 443.54"/><rect class="cls-1" x="552.5" y="591.65" width="9.21" height="15.95" transform="translate(-260.83 569.56) rotate(-45)"/><polygon class="cls-1" points="540.84 618.7 553.72 631.58 566.74 631.58 547.35 612.19 540.84 618.7"/><polygon class="cls-1" points="587.47 631.58 598.33 631.58 600 629.91 600 616.89 586.39 630.5 587.47 631.58"/><polygon class="cls-1" points="578.01 616.17 600 594.18 600 581.16 571.5 609.66 578.01 616.17"/><polygon class="cls-1" points="563.88 558.85 600 522.73 600 509.71 557.37 552.34 563.88 558.85"/><polygon class="cls-1" points="591.48 481.52 594.42 484.46 587.91 490.97 591.48 494.54 600 486.01 600 472.98 591.48 481.52"/><polygon class="cls-1" points="563.88 594.58 600 558.46 600 545.44 557.37 588.07 563.88 594.58"/><polygon class="cls-1" points="553.72 421.05 600 467.33 600 454.32 566.74 421.05 553.72 421.05"/><polygon class="cls-1" points="528.91 431.97 587.91 490.97 587.91 490.97 584.97 488.03 591.48 481.52 535.42 425.46 528.91 431.97"/><rect class="cls-1" x="585.09" y="484.17" width="9.2" height="4.16" transform="translate(-171.11 559.39) rotate(-45)"/><polygon class="cls-1" points="504.54 443.33 511.05 436.82 511.05 436.82 504.54 443.33 573.02 511.81 579.53 505.3 517.56 443.33 511.05 449.84 504.54 443.33"/><rect class="cls-1" x="489.33" y="443.77" width="9.21" height="31.58" transform="translate(-180.29 483.86) rotate(-45)"/><polygon class="cls-1" points="526.82 631.58 531.02 631.58 528.92 629.48 526.82 631.58"/><polygon class="cls-1" points="557.6 566.48 492.5 631.58 505.51 631.58 564.11 572.99 557.6 566.48"/><polygon class="cls-1" points="557.6 530.75 456.77 631.58 469.79 631.58 564.11 537.26 557.6 530.75"/><polygon class="cls-1" points="529.31 487.58 400 616.89 400 629.91 535.82 494.09 529.31 487.58"/><polygon class="cls-1" points="511.45 469.71 400 581.16 400 594.18 517.96 476.22 511.45 469.71"/><polygon class="cls-1" points="455.56 454.15 400 509.71 400 522.73 462.07 460.65 455.56 454.15"/><polygon class="cls-1" points="409.32 476.66 402.82 470.15 400 472.98 400 486.01 415.71 470.27 409.32 476.66"/><rect class="cls-1" x="412.58" y="462.29" height="9.21" transform="translate(-209.3 428.49) rotate(-45)"/><rect class="cls-1" x="427.92" y="556.11" width="141" height="9.21" transform="translate(-250.5 516.64) rotate(-45)"/><polygon class="cls-1" points="438.8 613.82 421.04 631.58 434.06 631.58 445.31 620.33 438.8 613.82"/><rect class="cls-1" x="440.15" y="479.21" width="55.97" height="9.21" transform="translate(-205 472.7) rotate(-45)"/><polygon class="cls-1" points="438.58 506.86 400 545.44 400 558.46 445.09 513.37 438.58 506.86"/><rect class="cls-1" x="423.61" y="437.52" width="9.21" height="31.58" transform="translate(-195.12 435.56) rotate(-45)"/><polygon class="cls-1" points="409.32 463.64 400 454.32 400 467.33 402.82 470.15 409.32 463.64"/><polygon class="cls-1" points="415.83 470.15 415.83 470.15 415.71 470.27 415.83 470.15"/><polygon class="cls-1" points="409.32 476.66 415.71 470.27 415.83 470.15 409.32 463.64 402.82 470.15 409.32 476.66"/><polygon class="cls-1" points="592.9 426.48 598.33 421.05 587.47 421.05 592.9 426.48"/><polygon class="cls-1" points="517.56 443.33 528.91 431.97 525.38 428.44 531.89 421.93 535.42 425.46 535.43 425.46 531.02 421.05 526.82 421.05 511.05 436.82 517.56 443.33"/><rect class="cls-1" x="525.8" y="424.45" width="9.21" height="5" transform="translate(-146.55 500.1) rotate(-45)"/><rect class="cls-1" x="506.45" y="438.73" width="9.2" height="9.21" transform="translate(-163.8 491.21) rotate(-45)"/><polygon class="cls-1" points="465.91 460.65 505.51 421.05 492.5 421.05 459.4 454.15 465.91 460.65"/><polygon class="cls-1" points="438.36 452.48 469.79 421.05 456.77 421.05 431.85 445.97 438.36 452.48"/><polygon class="cls-1" points="411.57 443.54 434.06 421.05 421.04 421.05 405.06 437.03 411.57 443.54"/><rect class="cls-1" x="752.5" y="591.65" width="9.21" height="15.95" transform="translate(-202.25 710.98) rotate(-45)"/><polygon class="cls-1" points="740.84 618.7 753.72 631.58 766.74 631.58 747.35 612.19 740.84 618.7"/><polygon class="cls-1" points="787.47 631.58 798.33 631.58 800 629.91 800 616.89 786.39 630.5 787.47 631.58"/><polygon class="cls-1" points="778.01 616.17 800 594.18 800 581.16 771.5 609.66 778.01 616.17"/><polygon class="cls-1" points="763.88 558.85 800 522.73 800 509.71 757.37 552.34 763.88 558.85"/><polygon class="cls-1" points="791.48 481.52 794.42 484.46 787.91 490.97 791.48 494.54 800 486.01 800 472.98 791.48 481.52"/><polygon class="cls-1" points="763.88 594.58 800 558.46 800 545.44 757.37 588.07 763.88 594.58"/><polygon class="cls-1" points="753.72 421.05 800 467.33 800 454.32 766.74 421.05 753.72 421.05"/><polygon class="cls-1" points="728.91 431.97 787.91 490.97 787.91 490.97 784.97 488.03 791.48 481.52 735.42 425.46 728.91 431.97"/><rect class="cls-1" x="785.09" y="484.17" width="9.2" height="4.16" transform="translate(-112.53 700.81) rotate(-45)"/><polygon class="cls-1" points="704.54 443.33 711.05 436.82 711.05 436.82 704.54 443.33 773.02 511.81 779.53 505.3 717.56 443.33 711.05 449.84 704.54 443.33"/><rect class="cls-1" x="689.33" y="443.77" width="9.21" height="31.58" transform="translate(-121.71 625.28) rotate(-45)"/><polygon class="cls-1" points="726.82 631.58 731.02 631.58 728.92 629.48 726.82 631.58"/><polygon class="cls-1" points="757.6 566.48 692.5 631.58 705.51 631.58 764.11 572.99 757.6 566.48"/><polygon class="cls-1" points="757.6 530.75 656.77 631.58 669.79 631.58 764.11 537.26 757.6 530.75"/><polygon class="cls-1" points="729.31 487.58 600 616.89 600 629.91 735.82 494.09 729.31 487.58"/><polygon class="cls-1" points="711.45 469.71 600 581.16 600 594.18 717.96 476.22 711.45 469.71"/><polygon class="cls-1" points="655.56 454.15 600 509.71 600 522.73 662.07 460.65 655.56 454.15"/><polygon class="cls-1" points="609.32 476.66 602.82 470.15 600 472.98 600 486.01 615.71 470.27 609.32 476.66"/><rect class="cls-1" x="612.58" y="462.29" height="9.21" transform="translate(-150.72 569.91) rotate(-45)"/><rect class="cls-1" x="627.92" y="556.11" width="141" height="9.21" transform="translate(-191.93 658.06) rotate(-45)"/><polygon class="cls-1" points="638.8 613.82 621.04 631.58 634.06 631.58 645.31 620.33 638.8 613.82"/><rect class="cls-1" x="640.15" y="479.21" width="55.97" height="9.21" transform="translate(-146.42 614.12) rotate(-45)"/><polygon class="cls-1" points="638.58 506.86 600 545.44 600 558.46 645.09 513.37 638.58 506.86"/><rect class="cls-1" x="623.61" y="437.52" width="9.21" height="31.58" transform="translate(-136.54 576.98) rotate(-45)"/><polygon class="cls-1" points="609.32 463.64 600 454.32 600 467.33 602.82 470.15 609.32 463.64"/><polygon class="cls-1" points="615.83 470.15 615.83 470.15 615.71 470.27 615.83 470.15"/><polygon class="cls-1" points="609.32 476.66 615.71 470.27 615.83 470.15 609.32 463.64 602.82 470.15 609.32 476.66"/><polygon class="cls-1" points="792.9 426.48 798.33 421.05 787.47 421.05 792.9 426.48"/><polygon class="cls-1" points="717.56 443.33 728.91 431.97 725.38 428.44 731.89 421.93 735.42 425.46 735.43 425.46 731.02 421.05 726.82 421.05 711.05 436.82 717.56 443.33"/><rect class="cls-1" x="725.8" y="424.45" width="9.21" height="5" transform="translate(-87.97 641.52) rotate(-45)"/><rect class="cls-1" x="706.45" y="438.73" width="9.2" height="9.21" transform="translate(-105.22 632.63) rotate(-45)"/><polygon class="cls-1" points="665.91 460.65 705.51 421.05 692.5 421.05 659.4 454.15 665.91 460.65"/><polygon class="cls-1" points="638.36 452.48 669.79 421.05 656.77 421.05 631.85 445.97 638.36 452.48"/><polygon class="cls-1" points="611.57 443.54 634.06 421.05 621.04 421.05 605.06 437.03 611.57 443.54"/><rect class="cls-1" x="152.5" y="802.18" width="9.21" height="15.95" transform="translate(-526.85 348.37) rotate(-45)"/><polygon class="cls-1" points="140.84 829.23 153.72 842.11 166.74 842.11 147.35 822.72 140.84 829.23"/><polygon class="cls-1" points="187.47 842.11 198.33 842.11 200 840.44 200 827.42 186.39 841.03 187.47 842.11"/><polygon class="cls-1" points="178.01 826.7 200 804.71 200 791.69 171.5 820.19 178.01 826.7"/><polygon class="cls-1" points="163.88 769.38 200 733.25 200 720.24 157.37 762.87 163.88 769.38"/><polygon class="cls-1" points="191.47 692.04 194.42 694.99 187.91 701.49 191.48 705.07 200 696.53 200 683.5 191.47 692.04"/><polygon class="cls-1" points="163.88 805.11 200 768.98 200 755.96 157.37 798.6 163.88 805.11"/><polygon class="cls-1" points="153.72 631.58 200 677.86 200 664.84 166.74 631.58 153.72 631.58"/><polygon class="cls-1" points="128.91 642.5 187.91 701.49 187.91 701.49 184.97 698.56 191.47 692.04 135.42 635.99 128.91 642.5"/><rect class="cls-1" x="185.09" y="694.69" width="9.2" height="4.16" transform="translate(-437.13 338.21) rotate(-45)"/><polygon class="cls-1" points="104.54 653.85 111.05 647.35 111.05 647.34 104.54 653.85 173.02 722.34 179.53 715.83 117.56 653.86 111.05 660.36 104.54 653.85"/><rect class="cls-1" x="89.33" y="654.3" width="9.21" height="31.58" transform="translate(-446.31 262.68) rotate(-45)"/><polygon class="cls-1" points="126.82 842.11 131.02 842.11 128.92 840 126.82 842.11"/><polygon class="cls-1" points="157.6 777 92.5 842.11 105.51 842.11 164.11 783.51 157.6 777"/><polygon class="cls-1" points="157.6 741.27 56.77 842.11 69.79 842.11 164.11 747.78 157.6 741.27"/><polygon class="cls-1" points="129.31 698.11 0 827.42 0 840.44 135.82 704.62 129.31 698.11"/><polygon class="cls-1" points="111.45 680.24 0 791.69 0 804.71 117.96 686.75 111.45 680.24"/><polygon class="cls-1" points="55.56 664.67 0 720.24 0 733.25 62.07 671.18 55.56 664.67"/><polygon class="cls-1" points="9.32 687.18 2.82 680.68 0 683.5 0 696.53 15.71 680.8 9.32 687.18"/><polygon class="cls-1" points="15.84 680.67 9.33 674.16 9.32 674.17 15.83 680.67 15.84 680.67"/><rect class="cls-1" x="27.92" y="766.64" width="141" height="9.21" transform="translate(-516.51 295.46) rotate(-45)"/><polygon class="cls-1" points="38.8 824.35 21.04 842.11 34.06 842.11 45.31 830.85 38.8 824.35"/><rect class="cls-1" x="40.15" y="689.74" width="55.97" height="9.21" transform="translate(-471 251.52) rotate(-45)"/><polygon class="cls-1" points="38.58 717.38 0 755.96 0 768.98 45.09 723.89 38.58 717.38"/><rect class="cls-1" x="23.61" y="648.04" width="9.21" height="31.58" transform="translate(-461.14 214.38) rotate(-45)"/><polygon class="cls-1" points="9.32 674.17 0 664.84 0 677.86 2.82 680.68 9.32 674.17"/><polygon class="cls-1" points="15.83 680.67 15.83 680.67 15.71 680.8 15.83 680.67"/><polygon class="cls-1" points="9.32 687.18 15.71 680.8 15.83 680.67 9.32 674.17 2.82 680.68 9.32 687.18"/><polygon class="cls-1" points="192.9 637.01 198.33 631.58 187.47 631.58 192.9 637.01"/><polygon class="cls-1" points="117.56 653.86 128.91 642.5 125.38 638.97 131.89 632.46 135.42 635.99 135.43 635.99 131.02 631.58 126.82 631.58 111.05 647.35 117.56 653.86"/><rect class="cls-1" x="125.8" y="634.98" width="9.21" height="5" transform="translate(-412.57 278.92) rotate(-45)"/><rect class="cls-1" x="106.45" y="649.25" width="9.2" height="9.21" transform="translate(-429.82 270.03) rotate(-45)"/><polygon class="cls-1" points="65.91 671.18 105.51 631.58 92.5 631.58 59.4 664.67 65.91 671.18"/><polygon class="cls-1" points="38.36 663.01 69.79 631.58 56.77 631.58 31.85 656.5 38.36 663.01"/><polygon class="cls-1" points="11.57 654.07 34.06 631.58 21.04 631.58 5.06 647.56 11.57 654.07"/><rect class="cls-1" x="352.5" y="802.18" width="9.21" height="15.95" transform="translate(-468.27 489.8) rotate(-45)"/><polygon class="cls-1" points="340.84 829.23 353.72 842.11 366.74 842.11 347.35 822.72 340.84 829.23"/><polygon class="cls-1" points="387.47 842.11 398.33 842.11 400 840.44 400 827.42 386.39 841.03 387.47 842.11"/><polygon class="cls-1" points="378.01 826.7 400 804.71 400 791.69 371.5 820.19 378.01 826.7"/><polygon class="cls-1" points="363.88 769.38 400 733.25 400 720.24 357.37 762.87 363.88 769.38"/><polygon class="cls-1" points="391.48 692.04 394.42 694.99 387.91 701.49 391.48 705.07 400 696.53 400 683.5 391.48 692.04"/><polygon class="cls-1" points="363.88 805.11 400 768.98 400 755.96 357.37 798.6 363.88 805.11"/><polygon class="cls-1" points="353.72 631.58 400 677.86 400 664.84 366.74 631.58 353.72 631.58"/><polygon class="cls-1" points="328.91 642.5 387.91 701.49 387.91 701.49 384.97 698.56 391.48 692.04 335.42 635.99 328.91 642.5"/><rect class="cls-1" x="385.09" y="694.69" width="9.2" height="4.16" transform="translate(-378.55 479.63) rotate(-45)"/><polygon class="cls-1" points="304.54 653.85 311.05 647.35 311.05 647.34 304.54 653.85 373.02 722.34 379.53 715.83 317.56 653.86 311.05 660.36 304.54 653.85"/><rect class="cls-1" x="289.33" y="654.3" width="9.21" height="31.58" transform="translate(-387.73 404.1) rotate(-45)"/><polygon class="cls-1" points="326.82 842.11 331.02 842.11 328.92 840 326.82 842.11"/><polygon class="cls-1" points="357.6 777 292.5 842.11 305.51 842.11 364.11 783.51 357.6 777"/><polygon class="cls-1" points="357.6 741.27 256.77 842.11 269.79 842.11 364.11 747.78 357.6 741.27"/><polygon class="cls-1" points="329.31 698.11 200 827.42 200 840.44 335.82 704.62 329.31 698.11"/><polygon class="cls-1" points="311.45 680.24 200 791.69 200 804.71 317.96 686.75 311.45 680.24"/><polygon class="cls-1" points="255.56 664.67 200 720.24 200 733.25 262.07 671.18 255.56 664.67"/><polygon class="cls-1" points="209.32 687.18 202.82 680.68 200 683.5 200 696.53 215.71 680.8 209.32 687.18"/><rect class="cls-1" x="212.58" y="672.82" height="9.21" transform="translate(-416.75 348.73) rotate(-45)"/><rect class="cls-1" x="227.92" y="766.64" width="141" height="9.21" transform="translate(-457.94 436.88) rotate(-45)"/><polygon class="cls-1" points="238.8 824.35 221.04 842.11 234.06 842.11 245.31 830.85 238.8 824.35"/><rect class="cls-1" x="240.15" y="689.74" width="55.97" height="9.21" transform="translate(-412.43 392.93) rotate(-45)"/><polygon class="cls-1" points="238.58 717.38 200 755.96 200 768.98 245.09 723.89 238.58 717.38"/><rect class="cls-1" x="223.61" y="648.04" width="9.21" height="31.58" transform="translate(-402.56 355.8) rotate(-45)"/><polygon class="cls-1" points="209.32 674.17 200 664.84 200 677.86 202.82 680.68 209.32 674.17"/><polygon class="cls-1" points="215.83 680.67 215.83 680.67 215.71 680.8 215.83 680.67"/><polygon class="cls-1" points="209.32 687.18 215.71 680.8 215.83 680.67 209.32 674.17 202.82 680.68 209.32 687.18"/><polygon class="cls-1" points="392.9 637.01 398.33 631.58 387.47 631.58 392.9 637.01"/><polygon class="cls-1" points="317.56 653.86 328.91 642.5 325.38 638.97 331.89 632.46 335.42 635.99 335.43 635.99 331.02 631.58 326.82 631.58 311.05 647.35 317.56 653.86"/><rect class="cls-1" x="325.8" y="634.98" width="9.21" height="5" transform="translate(-353.99 420.34) rotate(-45)"/><rect class="cls-1" x="306.45" y="649.25" width="9.2" height="9.21" transform="translate(-371.24 411.45) rotate(-45)"/><polygon class="cls-1" points="265.91 671.18 305.51 631.58 292.5 631.58 259.4 664.67 265.91 671.18"/><polygon class="cls-1" points="238.36 663.01 269.79 631.58 256.77 631.58 231.85 656.5 238.36 663.01"/><polygon class="cls-1" points="211.57 654.07 234.06 631.58 221.04 631.58 205.06 647.56 211.57 654.07"/><rect class="cls-1" x="552.5" y="802.18" width="9.21" height="15.95" transform="translate(-409.69 631.22) rotate(-45)"/><polygon class="cls-1" points="540.84 829.23 553.72 842.11 566.74 842.11 547.35 822.72 540.84 829.23"/><polygon class="cls-1" points="587.47 842.11 598.33 842.11 600 840.44 600 827.42 586.39 841.03 587.47 842.11"/><polygon class="cls-1" points="578.01 826.7 600 804.71 600 791.69 571.5 820.19 578.01 826.7"/><polygon class="cls-1" points="563.88 769.38 600 733.25 600 720.24 557.37 762.87 563.88 769.38"/><polygon class="cls-1" points="591.48 692.04 594.42 694.99 587.91 701.49 591.48 705.07 600 696.53 600 683.5 591.48 692.04"/><polygon class="cls-1" points="563.88 805.11 600 768.98 600 755.96 557.37 798.6 563.88 805.11"/><polygon class="cls-1" points="553.72 631.58 600 677.86 600 664.84 566.74 631.58 553.72 631.58"/><polygon class="cls-1" points="528.91 642.5 587.91 701.49 587.91 701.49 584.97 698.56 591.48 692.04 535.42 635.99 528.91 642.5"/><rect class="cls-1" x="585.09" y="694.69" width="9.2" height="4.16" transform="translate(-319.97 621.05) rotate(-45)"/><polygon class="cls-1" points="504.54 653.85 511.05 647.35 511.05 647.34 504.54 653.85 573.02 722.34 579.53 715.83 517.56 653.86 511.05 660.36 504.54 653.85"/><rect class="cls-1" x="489.33" y="654.3" width="9.21" height="31.58" transform="translate(-329.15 545.52) rotate(-45)"/><polygon class="cls-1" points="526.82 842.11 531.02 842.11 528.92 840 526.82 842.11"/><polygon class="cls-1" points="557.6 777 492.5 842.11 505.51 842.11 564.11 783.51 557.6 777"/><polygon class="cls-1" points="557.6 741.27 456.77 842.11 469.79 842.11 564.11 747.78 557.6 741.27"/><polygon class="cls-1" points="529.31 698.11 400 827.42 400 840.44 535.82 704.62 529.31 698.11"/><polygon class="cls-1" points="511.45 680.24 400 791.69 400 804.71 517.96 686.75 511.45 680.24"/><polygon class="cls-1" points="455.56 664.67 400 720.24 400 733.25 462.07 671.18 455.56 664.67"/><polygon class="cls-1" points="409.32 687.18 402.82 680.68 400 683.5 400 696.53 415.71 680.8 409.32 687.18"/><rect class="cls-1" x="412.58" y="672.82" height="9.21" transform="translate(-358.17 490.15) rotate(-45)"/><rect class="cls-1" x="427.92" y="766.64" width="141" height="9.21" transform="translate(-399.36 578.3) rotate(-45)"/><polygon class="cls-1" points="438.8 824.35 421.04 842.11 434.06 842.11 445.31 830.85 438.8 824.35"/><rect class="cls-1" x="440.15" y="689.74" width="55.97" height="9.21" transform="translate(-353.85 534.35) rotate(-45)"/><polygon class="cls-1" points="438.58 717.38 400 755.96 400 768.98 445.09 723.89 438.58 717.38"/><rect class="cls-1" x="423.61" y="648.04" width="9.21" height="31.58" transform="translate(-343.98 497.22) rotate(-45)"/><polygon class="cls-1" points="409.32 674.17 400 664.84 400 677.86 402.82 680.68 409.32 674.17"/><polygon class="cls-1" points="415.83 680.67 415.83 680.67 415.71 680.8 415.83 680.67"/><polygon class="cls-1" points="409.32 687.18 415.71 680.8 415.83 680.67 409.32 674.17 402.82 680.68 409.32 687.18"/><polygon class="cls-1" points="592.9 637.01 598.33 631.58 587.47 631.58 592.9 637.01"/><polygon class="cls-1" points="517.56 653.86 528.91 642.5 525.38 638.97 531.89 632.46 535.42 635.99 535.43 635.99 531.02 631.58 526.82 631.58 511.05 647.35 517.56 653.86"/><rect class="cls-1" x="525.8" y="634.98" width="9.21" height="5" transform="translate(-295.41 561.76) rotate(-45)"/><rect class="cls-1" x="506.45" y="649.25" width="9.2" height="9.21" transform="translate(-312.66 552.87) rotate(-45)"/><polygon class="cls-1" points="465.91 671.18 505.51 631.58 492.5 631.58 459.4 664.67 465.91 671.18"/><polygon class="cls-1" points="438.36 663.01 469.79 631.58 456.77 631.58 431.85 656.5 438.36 663.01"/><polygon class="cls-1" points="411.57 654.07 434.06 631.58 421.04 631.58 405.06 647.56 411.57 654.07"/><rect class="cls-1" x="752.5" y="802.18" width="9.21" height="15.95" transform="translate(-351.11 772.64) rotate(-45)"/><polygon class="cls-1" points="740.84 829.23 753.72 842.11 766.74 842.11 747.35 822.72 740.84 829.23"/><polygon class="cls-1" points="787.47 842.11 798.33 842.11 800 840.44 800 827.42 786.39 841.03 787.47 842.11"/><polygon class="cls-1" points="778.01 826.7 800 804.71 800 791.69 771.5 820.19 778.01 826.7"/><polygon class="cls-1" points="763.88 769.38 800 733.25 800 720.24 757.37 762.87 763.88 769.38"/><polygon class="cls-1" points="791.48 692.04 794.42 694.99 787.91 701.49 791.48 705.07 800 696.53 800 683.5 791.48 692.04"/><polygon class="cls-1" points="763.88 805.11 800 768.98 800 755.96 757.37 798.6 763.88 805.11"/><polygon class="cls-1" points="753.72 631.58 800 677.86 800 664.84 766.74 631.58 753.72 631.58"/><polygon class="cls-1" points="728.91 642.5 787.91 701.49 787.91 701.49 784.97 698.56 791.48 692.04 735.42 635.99 728.91 642.5"/><rect class="cls-1" x="785.09" y="694.69" width="9.2" height="4.16" transform="translate(-261.39 762.48) rotate(-45)"/><polygon class="cls-1" points="704.54 653.85 711.05 647.35 711.05 647.34 704.54 653.85 773.02 722.34 779.53 715.83 717.56 653.86 711.05 660.36 704.54 653.85"/><rect class="cls-1" x="689.33" y="654.3" width="9.21" height="31.58" transform="translate(-270.58 686.94) rotate(-45)"/><polygon class="cls-1" points="726.82 842.11 731.02 842.11 728.92 840 726.82 842.11"/><polygon class="cls-1" points="757.6 777 692.5 842.11 705.51 842.11 764.11 783.51 757.6 777"/><polygon class="cls-1" points="757.6 741.27 656.77 842.11 669.79 842.11 764.11 747.78 757.6 741.27"/><polygon class="cls-1" points="729.31 698.11 600 827.42 600 840.44 735.82 704.62 729.31 698.11"/><polygon class="cls-1" points="711.45 680.24 600 791.69 600 804.71 717.96 686.75 711.45 680.24"/><polygon class="cls-1" points="655.56 664.67 600 720.24 600 733.25 662.07 671.18 655.56 664.67"/><polygon class="cls-1" points="609.32 687.18 602.82 680.68 600 683.5 600 696.53 615.71 680.8 609.32 687.18"/><rect class="cls-1" x="612.58" y="672.82" height="9.21" transform="translate(-299.59 631.57) rotate(-45)"/><rect class="cls-1" x="627.92" y="766.64" width="141" height="9.21" transform="translate(-340.79 719.71) rotate(-45)"/><polygon class="cls-1" points="638.8 824.35 621.04 842.11 634.06 842.11 645.31 830.85 638.8 824.35"/><rect class="cls-1" x="640.15" y="689.74" width="55.97" height="9.21" transform="translate(-295.28 675.77) rotate(-45)"/><polygon class="cls-1" points="638.58 717.38 600 755.96 600 768.98 645.09 723.89 638.58 717.38"/><rect class="cls-1" x="623.61" y="648.04" width="9.21" height="31.58" transform="translate(-285.4 638.65) rotate(-45)"/><polygon class="cls-1" points="609.32 674.17 600 664.84 600 677.86 602.82 680.68 609.32 674.17"/><polygon class="cls-1" points="615.83 680.67 615.83 680.67 615.71 680.8 615.83 680.67"/><polygon class="cls-1" points="609.32 687.18 615.71 680.8 615.83 680.67 609.32 674.17 602.82 680.68 609.32 687.18"/><polygon class="cls-1" points="792.9 637.01 798.33 631.58 787.47 631.58 792.9 637.01"/><polygon class="cls-1" points="717.56 653.86 728.91 642.5 725.38 638.97 731.89 632.46 735.42 635.99 735.43 635.99 731.02 631.58 726.82 631.58 711.05 647.35 717.56 653.86"/><rect class="cls-1" x="725.8" y="634.98" width="9.21" height="5" transform="translate(-236.84 703.18) rotate(-45)"/><rect class="cls-1" x="706.45" y="649.25" width="9.2" height="9.21" transform="translate(-254.08 694.29) rotate(-45)"/><polygon class="cls-1" points="665.91 671.18 705.51 631.58 692.5 631.58 659.4 664.67 665.91 671.18"/><polygon class="cls-1" points="638.36 663.01 669.79 631.58 656.77 631.58 631.85 656.5 638.36 663.01"/><polygon class="cls-1" points="611.57 654.07 634.06 631.58 621.04 631.58 605.06 647.56 611.57 654.07"/></g></svg>