<svg id="Layer_1" data-name="Layer 1" xmlns="http://www.w3.org/2000/svg" viewBox="0 0 281 177"><defs><style>.cls-1{fill:#06255c;}</style></defs><path class="cls-1" d="M140.58,136.76a47.36,47.36,0,0,1,3.23-4.18Q197,79.26,250.21,26.06a19.7,19.7,0,0,1,8.14-4.84c4.6-1.3,9.63,1.45,12.07,5.6a12,12,0,0,1-.81,13.39,31.79,31.79,0,0,1-2.81,3L150.67,159.6c-7.24,7.25-13.38,7.26-20.57.05Q71.63,101.06,13.17,42.46C5.7,35,8,24,17.49,21.39c4.63-1.25,8.59.12,11.94,3.47q10.18,10.2,20.38,20.41Q93.46,89,137.1,132.76C138.07,133.73,138.9,134.83,140.58,136.76Z"/></svg>