<svg id="Layer_1" data-name="Layer 1" xmlns="http://www.w3.org/2000/svg" viewBox="0 0 1024 726"><defs><style>.cls-1{fill:#222933;}</style></defs><path class="cls-1" d="M588.91,559.57c-7-2.2-12-7.2-17.09-12.26q-83.44-83.58-167-167.06c-8.49-8.49-10.28-18.5-5-27.78a27.7,27.7,0,0,1,4.83-5.9q86-86,171.91-171.92c10.47-10.47,22.92-10.48,33.37-.08,4.26,4.24,8.66,8.36,12.56,12.92a21,21,0,0,1-.22,27.69c-1.16,1.36-2.43,2.63-3.69,3.89q-70.49,70.51-141,141c-2.48,2.48-2.88,3.65-.14,6.37q71.19,70.91,142.13,142c8.9,8.91,10.86,21,3.69,29.24-7.42,8.55-14.45,17.89-25.82,21.91Z"/></svg>