<svg width="28" height="28" viewBox="0 0 28 28" fill="none" xmlns="http://www.w3.org/2000/svg">
<path d="M8.4375 4.8916H19.5645C19.5029 4.10938 19.0459 3.6875 18.2021 3.6875H9.79102C8.95605 3.6875 8.49023 4.10938 8.4375 4.8916ZM6.64453 7.42285H21.3574C21.2344 6.58789 20.8125 6.11328 19.8809 6.11328H8.12109C7.18945 6.11328 6.76758 6.58789 6.64453 7.42285ZM7.59375 23.6035H20.3994C22.2891 23.6035 23.2822 22.6191 23.2822 20.7471V11.7119C23.2822 9.83105 22.2891 8.85547 20.3994 8.85547H7.59375C5.69531 8.85547 4.71094 9.83105 4.71094 11.7119V20.7471C4.71094 22.6279 5.69531 23.6035 7.59375 23.6035ZM7.69922 21.8809C6.88184 21.8809 6.43359 21.4502 6.43359 20.5977V11.8525C6.43359 11 6.88184 10.5781 7.69922 10.5781H20.2939C21.1025 10.5781 21.5596 11 21.5596 11.8525V20.5977C21.5596 21.4502 21.1025 21.8809 20.2939 21.8809H19.125C18.3516 20.1318 16.3828 18.9453 14.0361 18.9453C11.6982 18.9453 9.72949 20.1318 8.94727 21.8809H7.69922ZM14.0361 17.6797C15.5654 17.6973 16.752 16.3965 16.752 14.7178C16.752 13.1182 15.5566 11.7998 14.0361 11.7998C12.5244 11.7998 11.3203 13.1182 11.3291 14.7178C11.3291 16.3965 12.5156 17.6621 14.0361 17.6797Z" fill="#399CE4"/>
</svg>
