<svg id="Layer_1" data-name="Layer 1" xmlns="http://www.w3.org/2000/svg" viewBox="0 0 24 24"><defs><style>.cls-1{fill:#fff;}</style></defs><path class="cls-1" d="M2.73,11.69a.6.6,0,0,1,.37-.09H21.71a.36.36,0,0,1,.35.37h0a.37.37,0,0,1-.34.38H3.21a.87.87,0,0,1-.42-.07,1,1,0,0,0,.4.64l2.6,2.2,6,5.12a.39.39,0,0,1,.15.51c-.11.24-.38.26-.62.06L8.23,18.19l-5.5-4.62a2,2,0,0,1-.42-2.71A3.7,3.7,0,0,1,3,10.18l8.2-7,.07-.06a.37.37,0,0,1,.52,0l0,0a.37.37,0,0,1-.06.52h0L10.27,5,3.16,11A1.2,1.2,0,0,0,2.73,11.69Z"/></svg>