<svg id="Layer_1" data-name="Layer 1" xmlns="http://www.w3.org/2000/svg" viewBox="0 0 232.5 189.12"><defs><style>.cls-1{fill:#9ca3b5;}.cls-2{fill:#aaafbf;}.cls-3{fill:#979eb1;}.cls-4{fill:#b3b8c6;}.cls-5{fill:none;stroke:#bcbcbc;stroke-miterlimit:10;stroke-width:4px;}.cls-6{fill:#bcbcbc;}</style></defs><path class="cls-1" d="M43.58,107.83A1.11,1.11,0,0,1,43.9,109c-.12.26-.23.26-.32,0Z"/><path class="cls-2" d="M43.58,96.72c.34.14.34.43.31.72s-.19.28-.31,0Z"/><path class="cls-3" d="M43.58,97.46a1.62,1.62,0,0,1,.31,0,.79.79,0,0,1-.31.76Z"/><path class="cls-4" d="M43.58,108.94l.32,0c0,.3,0,.59-.32.72Z"/><rect class="cls-5" x="14.26" y="18.25" width="205.44" height="155.87" rx="5.97"/><path class="cls-6" d="M14.26,144,76.82,70.08l53,65.24,52-40.28L219.7,140.8l1,21.49c0,4.76-4.82,11.64-9.58,11.69l-187.63-.8c-4.78.06-9.76-3.66-10-8.44Z"/><circle class="cls-6" cx="156.58" cy="50.16" r="11.28"/></svg>