<svg id="Layer_1" data-name="Layer 1" xmlns="http://www.w3.org/2000/svg" viewBox="0 0 120.64 118.56"><defs><style>.cls-1{fill:#399ce4;}</style></defs><path class="cls-1" d="M3.86,25.64c.37-.16.21-.52.27-.78A14.2,14.2,0,0,1,18.28,13.48c8.29-.09,16.58,0,24.86,0a2.91,2.91,0,0,1,3.22,2.84C46.36,18,45,19.15,43,19.15H18.62a8.59,8.59,0,0,0-8.77,6.54,10.42,10.42,0,0,0-.27,2.78q0,36.45,0,72.9c0,4.68,2.31,7.91,6.46,9a10.29,10.29,0,0,0,2.77.32H97.65c4.49,0,7.67-2.3,8.87-6.4a10.31,10.31,0,0,0,.35-3q0-12.1,0-24.19A2.93,2.93,0,0,1,109.14,74a2.84,2.84,0,0,1,3.4,3c0,5.6,0,11.2,0,16.8,0,3,0,6,0,9a14.19,14.19,0,0,1-12.9,13.57c-.2,0-.46-.09-.55.22h-.45a2.26,2.26,0,0,0-1.21-.11q-39.23,0-78.45,0a2.23,2.23,0,0,0-1.2.11h-.9a14.77,14.77,0,0,1-5.43-1.5,14.89,14.89,0,0,1-7.15-8.54c-.26-.82-.17-1.69-.41-2.5Z"/><path class="cls-1" d="M17.75,116.58c.25-.43.67-.21,1-.21q39.44,0,78.86,0c.33,0,.75-.23,1,.21Z"/><path class="cls-1" d="M116,10.89a34.07,34.07,0,0,0-6-6,12.29,12.29,0,0,0-7.57-2.56,13,13,0,0,0-9.35,3.94L42.63,56.72a4.35,4.35,0,0,0-1.2,2.1c-.52,2-1.1,3.94-1.65,5.91-1.62,5.88-3.27,11.76-4.85,17.66A2.82,2.82,0,0,0,38.5,86l.66-.16c7.49-2.07,15-4.16,22.49-6.22a6.28,6.28,0,0,0,2.92-1.73q24.77-24.81,49.56-49.58c.4-.4.79-.8,1.16-1.22A12.7,12.7,0,0,0,116,10.89ZM41.73,79.16c1.38-5,2.72-9.85,4.07-14.72.79.57,9.94,9.69,10.65,10.64ZM103,31.31l-9,9Q78.43,55.91,62.81,71.56c-.73.73-1.05.63-1.7,0q-5.89-6-11.88-11.87c-.58-.58-.62-.86,0-1.46Q69.4,38.06,89.52,17.88c.61-.62.89-.54,1.46,0,4,4,8,8,12,12.05.21.21.4.44.63.69C103.41,30.89,103.22,31.11,103,31.31Zm8.16-8.26c-1,1.08-2,2.08-3,3.14-.35.38-.55.31-.88,0Q101,19.87,94.69,13.58c-.21-.21-.49-.38-.13-.71,1.36-1.27,2.5-2.8,4.11-3.78a6.94,6.94,0,0,1,8.23.65,36.48,36.48,0,0,1,4.34,4.36,6.62,6.62,0,0,1,1.56,4.43A6.61,6.61,0,0,1,111.17,23.05Z"/></svg>