<svg id="Layer_1" data-name="Layer 1" xmlns="http://www.w3.org/2000/svg" viewBox="0 0 48 36"><defs><style>.cls-1{fill:#636363;}</style></defs><path class="cls-1" d="M32.84,18a8.74,8.74,0,0,1-.78,3.62L20.57,9.86A8.52,8.52,0,0,1,24,9.16,8.84,8.84,0,0,1,32.84,18Z"/><path class="cls-1" d="M47.93,18.09a48.79,48.79,0,0,1-9.8,9.75L36,25.67A45.9,45.9,0,0,0,44.18,18C41.08,14.3,33,5.84,24,5.84a16.83,16.83,0,0,0-6.15,1.24L15.6,4.77A20.39,20.39,0,0,1,24,2.84c12.65,0,23,13.81,23.93,15.07A.13.13,0,0,1,47.93,18.09Z"/><path class="cls-1" d="M39.55,32.83l-3.49-3.57-2.15-2.2-3.22-3.3L18.39,11.17l-2.93-3L13.28,5.94,9.22,1.78A1,1,0,0,0,7.78,3.17L11.53,7A47.9,47.9,0,0,0,.07,17.91a.13.13,0,0,0,0,.18C1,19.35,11.35,33.16,24,33.16A21.64,21.64,0,0,0,34.28,30.3l3.83,3.92a1,1,0,0,0,1.42,0A1,1,0,0,0,39.55,32.83ZM24,30.16C15,30.16,6.92,21.7,3.82,18a44,44,0,0,1,9.85-8.8L17,12.61A8.73,8.73,0,0,0,15.16,18a8.84,8.84,0,0,0,14.07,7.13l2.86,2.93A18.19,18.19,0,0,1,24,30.16Z"/></svg>