<svg width="28" height="28" viewBox="0 0 28 28" fill="none" xmlns="http://www.w3.org/2000/svg">
<g clip-path="url(#clip0_940_12506)">
<path d="M26.4546 28.0001C27.308 28.0001 28 27.3082 28 26.4548V1.54536C28 0.691797 27.308 0 26.4546 0H1.54536C0.691687 0 0 0.691797 0 1.54536V26.4548C0 27.3082 0.691687 28.0001 1.54536 28.0001H26.4546Z" fill="#395185"/>
<path d="M19.3193 27.9996V17.1565H22.959L23.5039 12.9308H19.3193V10.2328C19.3193 9.0093 19.6592 8.17553 21.4137 8.17553L23.6514 8.17455V4.39509C23.2642 4.34358 21.9359 4.22852 20.3907 4.22852C17.1643 4.22852 14.9556 6.19781 14.9556 9.81441V12.9308H11.3066V17.1565H14.9556V27.9996H19.3193Z" fill="white"/>
</g>
<defs>
<clipPath id="clip0_940_12506">
<rect width="28" height="28" fill="white"/>
</clipPath>
</defs>
</svg>
