<svg width="40" height="40" viewBox="0 0 40 40" fill="none" xmlns="http://www.w3.org/2000/svg">
<path d="M36.3432 16.7355H35.0007V16.6663H20.0007V23.333H29.4198C28.0457 27.2138 24.3532 29.9997 20.0007 29.9997C14.4782 29.9997 10.0007 25.5222 10.0007 19.9997C10.0007 14.4772 14.4782 9.99967 20.0007 9.99967C22.5498 9.99967 24.869 10.9613 26.6348 12.5322L31.349 7.81801C28.3723 5.04384 24.3906 3.33301 20.0007 3.33301C10.7965 3.33301 3.33398 10.7955 3.33398 19.9997C3.33398 29.2038 10.7965 36.6663 20.0007 36.6663C29.2048 36.6663 36.6673 29.2038 36.6673 19.9997C36.6673 18.8822 36.5523 17.7913 36.3432 16.7355Z" fill="#FFC107"/>
<path d="M5.25391 12.2422L10.7297 16.258C12.2114 12.5897 15.7997 9.99967 19.9989 9.99967C22.5481 9.99967 24.8672 10.9613 26.6331 12.5322L31.3472 7.81801C28.3706 5.04384 24.3889 3.33301 19.9989 3.33301C13.5972 3.33301 8.04557 6.94717 5.25391 12.2422Z" fill="#FF3D00"/>
<path d="M19.9996 36.6667C24.3046 36.6667 28.2163 35.0192 31.1738 32.3401L26.0154 27.9751C24.2859 29.2904 22.1725 30.0018 19.9996 30.0001C15.6646 30.0001 11.9838 27.2359 10.5971 23.3784L5.16211 27.5659C7.92044 32.9634 13.5221 36.6667 19.9996 36.6667Z" fill="#4CAF50"/>
<path d="M36.3425 16.7362H35V16.667H20V23.3337H29.4192C28.7618 25.1807 27.5778 26.7946 26.0133 27.9762L26.0158 27.9745L31.1742 32.3395C30.8092 32.6712 36.6667 28.3337 36.6667 20.0003C36.6667 18.8828 36.5517 17.792 36.3425 16.7362Z" fill="#1976D2"/>
</svg>
