<svg width="120" height="120" viewBox="0 0 120 120" fill="none" xmlns="http://www.w3.org/2000/svg">
<circle opacity="0.1" cx="60" cy="60" r="60" fill="#399CE4"/>
<path d="M44.2499 81.5494C45.395 81.5494 46.3994 81.0672 47.7856 79.8619L54.2343 74.1163C55.7209 75.6632 57.9508 76.4869 60.7432 76.4869H67.6137L74.3035 82.2324C75.6294 83.3574 76.5736 83.9802 77.6584 83.9802C79.2655 83.9802 80.2097 82.8351 80.2097 81.0873V76.4869H81.1338C86.1963 76.4869 89.5713 73.3931 89.5713 68.19V55.9154C89.5713 50.6319 86.1361 47.4578 80.9731 47.4578H77.4776V46.152C77.4776 40.6877 74.1227 37.4534 68.6182 37.4534H39.2878C33.9441 37.4534 30.4285 40.6877 30.4285 46.152V64.9556C30.4285 70.3395 33.8838 73.5337 39.1271 73.5337H41.6584V78.6766C41.6584 80.4444 42.6227 81.5494 44.2499 81.5494ZM45.2544 71.565C45.2544 70.3596 44.5111 69.7369 43.5066 69.7369H39.77C36.4352 69.7369 34.4262 67.8685 34.4262 64.3931V46.594C34.4262 43.1185 36.4553 41.2302 39.77 41.2302H68.116C71.4508 41.2302 73.4597 43.1185 73.4597 46.594V47.4578H60.7432C55.3994 47.4578 52.145 50.6319 52.145 55.9154V68.19C52.145 69.0337 52.2253 69.7971 52.3861 70.5203L45.2544 77.19V71.565ZM76.6338 79.6208L70.3459 73.9154C69.4619 73.1119 68.7186 72.7502 67.5334 72.7502H61.1651C58.0111 72.7502 56.1026 71.0025 56.1026 67.6677V56.2971C56.1026 53.0025 58.0111 51.2145 61.1651 51.2145H80.5311C83.7052 51.2145 85.6137 53.0025 85.6137 56.2971V67.6677C85.6137 70.9824 83.6852 72.7502 80.5311 72.7502H78.3615C77.3771 72.7502 76.6338 73.3529 76.6338 74.5583V79.6208Z" fill="#399CE4"/>
</svg>
