<svg width="20" height="20" viewBox="0 0 20 20" fill="none" xmlns="http://www.w3.org/2000/svg">
<path d="M3.5206 20H16.4794C18.8015 20 20 18.8015 20 16.5115V3.4885C20 1.1985 18.8015 0 16.4794 0H3.5206C1.2092 0 0 1.1878 0 3.4885V16.5115C0 18.8015 1.2092 20 3.5206 20ZM4.85821 9.99465C4.85821 9.3633 5.30765 8.92456 5.9283 8.92456H8.97806V5.8748C8.97806 5.25415 9.4061 4.81541 10.0268 4.81541C10.6474 4.81541 11.0968 5.25415 11.0968 5.8748V8.92456H14.1466C14.7566 8.92456 15.206 9.3633 15.206 9.99465C15.206 10.6046 14.7566 11.0433 14.1466 11.0433H11.0968V14.0931C11.0968 14.703 10.6474 15.1525 10.0268 15.1525C9.4061 15.1525 8.97806 14.703 8.97806 14.0931V11.0433H5.9283C5.30765 11.0433 4.85821 10.6046 4.85821 9.99465Z" fill="#399CE4"/>
</svg>
