<svg width="28" height="28" viewBox="0 0 28 28" fill="none" xmlns="http://www.w3.org/2000/svg">
<path d="M8.67285 21.8809H19.3164C21.2236 21.8809 22.208 20.8965 22.208 19.0156V8.31934C22.208 6.43848 21.2236 5.4541 19.3164 5.4541H8.67285C6.77441 5.4541 5.78125 6.42969 5.78125 8.31934V19.0156C5.78125 20.8965 6.77441 21.8809 8.67285 21.8809ZM8.78711 20.1318C7.97852 20.1318 7.53027 19.71 7.53027 18.8574V8.47754C7.53027 7.625 7.97852 7.20312 8.78711 7.20312H19.2021C20.002 7.20312 20.459 7.625 20.459 8.47754V18.8574C20.459 19.71 20.002 20.1318 19.2021 20.1318H8.78711ZM10.7559 14.4805H13.1729V16.8975C13.1729 17.3896 13.5156 17.7324 13.9902 17.7324C14.4824 17.7324 14.834 17.3896 14.834 16.8975V14.4805H17.251C17.7344 14.4805 18.0771 14.1377 18.0771 13.6631C18.0771 13.1709 17.7344 12.8193 17.251 12.8193H14.834V10.4111C14.834 9.91016 14.4824 9.57617 13.9902 9.57617C13.5156 9.57617 13.1729 9.91895 13.1729 10.4111V12.8193H10.7559C10.2637 12.8193 9.9209 13.1709 9.9209 13.6631C9.9209 14.1377 10.2637 14.4805 10.7559 14.4805Z" fill="white"/>
</svg>
