<svg width="28" height="28" viewBox="0 0 28 28" fill="none" xmlns="http://www.w3.org/2000/svg">
<path d="M0.212891 20.7637C0.212891 21.27 0.611328 21.6685 1.10938 21.6685C1.60742 21.6685 2.00586 21.27 2.00586 20.7637C2.00586 13.6001 7.40137 7.74805 14.0005 7.74805C20.5996 7.74805 25.9868 13.6001 25.9868 20.7637C25.9868 21.27 26.3936 21.6685 26.8833 21.6685C27.3813 21.6685 27.7798 21.27 27.7798 20.7637C27.7798 12.6123 21.5957 5.95508 14.0005 5.95508C6.39697 5.95508 0.212891 12.6123 0.212891 20.7637ZM14.0171 15.3433C15.5029 15.3433 16.7729 14.0151 16.7729 12.2969C16.7729 10.6118 15.4946 9.3252 14.0171 9.3252C12.5229 9.3252 11.2363 10.6284 11.2446 12.3052C11.2446 14.0151 12.5146 15.3433 14.0171 15.3433ZM4.45459 20.7637C4.45459 21.2534 4.85303 21.6519 5.35107 21.6519C5.84082 21.6519 6.24756 21.2534 6.24756 20.7637C6.24756 17.6758 7.81641 14.9033 10.2236 13.4258C10.124 13.0771 10.0659 12.7036 10.0659 12.3135C10.0659 11.9897 10.1074 11.6826 10.1821 11.3921C6.77051 13.0024 4.45459 16.6299 4.45459 20.7637ZM21.7534 20.7637C21.7534 21.2534 22.1519 21.6519 22.6416 21.6519C23.1396 21.6519 23.5381 21.2534 23.5381 20.7637C23.5381 16.6382 21.2305 13.0273 17.8438 11.4087C17.9102 11.6909 17.9517 11.9897 17.9517 12.2969C17.9517 12.6953 17.8936 13.0854 17.7856 13.4507C20.1846 14.9199 21.7534 17.6758 21.7534 20.7637ZM9.44336 21.7266H18.5659C19.3379 21.7266 19.8027 21.3613 19.8027 20.7554C19.8027 18.9873 17.5615 16.5552 14.0088 16.5552C10.4478 16.5552 8.20654 18.9873 8.20654 20.7554C8.20654 21.3613 8.67139 21.7266 9.44336 21.7266Z" fill="#399CE4"/>
</svg>
