<svg width="34" height="33" viewBox="0 0 34 33" fill="none" xmlns="http://www.w3.org/2000/svg">
<path d="M16.1033 0.816985C16.4701 0.0737393 17.5299 0.0737401 17.8967 0.816986L22.3513 9.8429C22.497 10.138 22.7785 10.3426 23.1042 10.3899L33.0649 11.8373C33.8851 11.9565 34.2126 12.9645 33.6191 13.543L26.4115 20.5687C26.1758 20.7984 26.0683 21.1294 26.1239 21.4538L27.8254 31.3743C27.9655 32.1912 27.1081 32.8141 26.3744 32.4284L17.4653 27.7446C17.174 27.5915 16.826 27.5915 16.5347 27.7446L7.62555 32.4284C6.89192 32.8141 6.03449 32.1912 6.1746 31.3743L7.87609 21.4538C7.93173 21.1294 7.82418 20.7984 7.58849 20.5687L0.380875 13.543C-0.212642 12.9645 0.114868 11.9565 0.935089 11.8373L10.8958 10.3899C11.2215 10.3426 11.503 10.138 11.6487 9.8429L16.1033 0.816985Z" fill="#F0AF4E"/>
</svg>
