<svg width="32" height="29" viewBox="0 0 32 29" fill="none" xmlns="http://www.w3.org/2000/svg">
<path opacity="0.1" d="M15.1033 0.816984C15.4701 0.0737383 16.5299 0.0737404 16.8967 0.816986L20.7635 8.65191C20.9092 8.94706 21.1907 9.15163 21.5164 9.19896L30.1628 10.4553C30.983 10.5745 31.3105 11.5825 30.717 12.161L24.4604 18.2597C24.2248 18.4894 24.1172 18.8204 24.1729 19.1448L25.6498 27.7562C25.7899 28.5731 24.9325 29.1961 24.1989 28.8104L16.4653 24.7446C16.174 24.5915 15.826 24.5915 15.5347 24.7446L7.80112 28.8104C7.06749 29.1961 6.21006 28.5731 6.35017 27.7562L7.82715 19.1448C7.88278 18.8204 7.77524 18.4894 7.53955 18.2597L1.28299 12.161C0.68947 11.5825 1.01698 10.5745 1.8372 10.4553L10.4836 9.19896C10.8093 9.15163 11.0908 8.94706 11.2365 8.65191L15.1033 0.816984Z" fill="#399CE4"/>
</svg>
