<svg width="28" height="28" viewBox="0 0 28 28" fill="none" xmlns="http://www.w3.org/2000/svg">
<path d="M6.44238 22.2236H21.5508C23.4404 22.2236 24.4072 21.2744 24.4072 19.4023V10.7891C24.4072 8.92578 23.4404 7.96777 21.5508 7.96777H19.3271V7.27344C19.3271 5.6123 18.4307 4.82129 16.7695 4.82129H11.2148C9.63281 4.82129 8.66602 5.6123 8.66602 7.27344V7.96777H6.44238C4.56152 7.96777 3.58594 8.92578 3.58594 10.7891V19.4023C3.58594 21.2744 4.56152 22.2236 6.44238 22.2236ZM10.2744 7.20312C10.2744 6.61426 10.626 6.28027 11.2412 6.28027H16.752C17.3672 6.28027 17.71 6.61426 17.71 7.20312V7.96777H10.2744V7.20312ZM20.4609 12.8721C20.4609 12.1953 20.0742 11.8086 19.3975 11.8086H17.2441C16.5674 11.8086 16.1807 12.1953 16.1807 12.8721V12.9688H11.8125V12.8721C11.8125 12.1953 11.417 11.8086 10.7402 11.8086H8.5957C7.91895 11.8086 7.52344 12.1953 7.52344 12.8721V12.9688H5.33496V10.8418C5.33496 10.0508 5.74805 9.65527 6.5127 9.65527H21.4805C22.2451 9.65527 22.6582 10.0508 22.6582 10.8418V12.9688H20.4609V12.8721ZM6.5127 20.5361C5.74805 20.5361 5.33496 20.1494 5.33496 19.3496V14.4893H7.52344V14.5859C7.52344 15.2627 7.91895 15.6494 8.5957 15.6494H10.7402C11.417 15.6494 11.8125 15.2627 11.8125 14.5859V14.4893H16.1807V14.5859C16.1807 15.2627 16.5674 15.6494 17.2441 15.6494H19.3975C20.0742 15.6494 20.4609 15.2627 20.4609 14.5859V14.4893H22.6582V19.3496C22.6582 20.1494 22.2451 20.5361 21.4805 20.5361H6.5127Z" fill="#399CE4"/>
</svg>
