<svg width="32" height="32" viewBox="0 0 32 32" fill="none" xmlns="http://www.w3.org/2000/svg">
<rect opacity="0.1" width="32" height="32" rx="4" fill="#399CE4"/>
<path d="M16 11.5117C15.6924 11.5205 15.4111 11.6348 15.1826 11.8809L8.50293 18.7187C8.30957 18.9121 8.2041 19.1582 8.2041 19.4482C8.2041 20.0283 8.66113 20.4941 9.24121 20.4941C9.52246 20.4941 9.79492 20.3799 9.99707 20.1777L15.9912 14.0166L22.0029 20.1777C22.2051 20.3711 22.4688 20.4941 22.7588 20.4941C23.3389 20.4941 23.7959 20.0283 23.7959 19.4482C23.7959 19.1582 23.6904 18.9121 23.4971 18.7187L16.8086 11.8809C16.5713 11.6348 16.3076 11.5117 16 11.5117Z" fill="#399CE4"/>
</svg>
