<svg id="Layer_1" data-name="Layer 1" xmlns="http://www.w3.org/2000/svg" viewBox="0 0 188.92 189.12"><defs><style>.cls-1{fill:#aaa;}.cls-2{fill:#9ca3b5;}.cls-3{fill:#aaafbf;}.cls-4{fill:#979eb1;}.cls-5{fill:#b3b8c6;}.cls-6{fill:#fff;}</style></defs><path class="cls-1" d="M185.24,93.6c0,49.84-40.4,89.52-90.24,89.52S4.76,143.44,4.76,93.6a90.24,90.24,0,0,1,180.48,0Z"/><path class="cls-2" d="M0,107.83A1.11,1.11,0,0,1,.32,109c-.12.26-.23.26-.32,0Z"/><path class="cls-3" d="M0,96.72c.34.14.34.43.31.72s-.19.28-.31,0Z"/><path class="cls-4" d="M0,97.46a1.62,1.62,0,0,1,.31,0A.79.79,0,0,1,0,98.2Z"/><path class="cls-5" d="M0,108.94l.32,0c0,.3,0,.59-.32.72Z"/><path class="cls-6" d="M155.7,160.9c-35.08,29.77-87.37,29.61-122.57-.37a1.05,1.05,0,0,0,.88-.08c8.49-6,18.15-10,27-15.44a30.59,30.59,0,0,1,3.57-1.91q7.84-3.49,7.83-11.64c0-3.27.25-6.56-.08-9.8s-3.28-5.49-4.79-8.35A66.85,66.85,0,0,1,61.25,98,3.44,3.44,0,0,0,60,96a9.06,9.06,0,0,1-3.45-7.09c-.08-4.46-.05-8.91,0-13.37A8.52,8.52,0,0,1,58.81,70a3.57,3.57,0,0,0,.94-2.62c-.08-6.55-.2-13.1-.1-19.65a23.94,23.94,0,0,1,15-21.87,51.52,51.52,0,0,1,40.8.38,23.82,23.82,0,0,1,14.14,23c-.27,6.24-.08,12.5-.13,18.75a2.45,2.45,0,0,0,.78,1.78,9.75,9.75,0,0,1,2.46,6.8c0,3.89,0,7.77,0,11.66a9.41,9.41,0,0,1-5.76,9.13,2.61,2.61,0,0,0-1.48,1.72,66.35,66.35,0,0,1-11.12,20.49,3.27,3.27,0,0,0-.73,2.07c0,3.52-.06,7,0,10.56a12.34,12.34,0,0,0,6.88,10.7l27.85,13.91a31.87,31.87,0,0,1,6,3.6C154.76,160.75,155.14,161.08,155.7,160.9Z"/></svg>